<?xml version="1.0" encoding="UTF-8"?>
<!DOCTYPE svg PUBLIC "-//W3C//DTD SVG 1.1//EN" "http://www.w3.org/Graphics/SVG/1.1/DTD/svg11.dtd">
<!-- Creator: CorelDRAW X7 -->
<svg xmlns="http://www.w3.org/2000/svg" xml:space="preserve" width="80.4362mm" height="27.1244mm" version="1.1" style="shape-rendering:geometricPrecision; text-rendering:geometricPrecision; image-rendering:optimizeQuality; fill-rule:evenodd; clip-rule:evenodd"
viewBox="0 0 6078 2050"
 xmlns:xlink="http://www.w3.org/1999/xlink">
 <defs>
  <style type="text/css">
   <![CDATA[
    .fil0 {fill:none}
    .fil1 {fill:#FFFFFF;fill-rule:nonzero}
   ]]>
  </style>
 </defs>
 <g id="Camada_x0020_1">
  <metadata id="CorelCorpID_0Corel-Layer"/>
  <g id="_1961506688864">
   <path class="fil0" d="M1336 93c924,438 222,1591 -249,1951"/>
   <path class="fil1" d="M1389 80c7,3 10,8 11,14 2,7 -1,17 -7,29 -6,13 -13,20 -20,23 -6,3 -12,3 -18,-1 -6,-3 -10,-8 -12,-15 -1,-7 2,-16 8,-29 7,-12 13,-19 20,-22 6,-3 12,-3 18,1zm-5 10c-2,-1 -3,-1 -5,-1 -1,1 -3,2 -5,4 -3,3 -6,8 -10,15 -4,8 -6,13 -7,17 -1,3 -1,5 0,7 1,1 2,2 3,3 2,1 3,1 5,1 2,-1 3,-2 5,-4 3,-3 6,-8 10,-15 4,-8 6,-13 7,-17 1,-3 1,-5 0,-7 -1,-1 -2,-2 -3,-3zm31 87l-11 -7 28 -44c-7,1 -14,1 -21,-1l7 -11c4,1 8,1 14,1 5,-1 10,-2 13,-5l10 6 -40 61zm77 -37c6,4 9,9 10,15 1,8 -3,18 -10,29 -8,12 -15,19 -22,21 -6,2 -12,1 -18,-2 -6,-4 -9,-10 -10,-17 -1,-6 3,-16 10,-28 8,-11 15,-18 22,-21 6,-2 12,-1 18,3zm-6 10c-2,-1 -3,-1 -5,-1 -1,0 -3,1 -5,3 -3,3 -7,7 -12,15 -4,7 -7,12 -8,15 -1,3 -1,6 -1,7 1,2 2,3 3,4 1,1 3,1 5,1 1,0 3,-1 5,-3 3,-3 7,-8 11,-15 5,-7 8,-12 9,-15 1,-3 1,-6 1,-7 -1,-2 -2,-3 -3,-4zm21 92l-11 -8 33 -42c-7,1 -14,0 -21,-2l8 -10c4,1 8,2 14,2 5,0 10,-1 14,-4l9 7 -46 57zm85 -23c5,5 7,10 7,17 -1,7 -6,16 -16,26 -10,10 -18,15 -26,16 -6,1 -12,-1 -17,-6 -5,-5 -7,-11 -6,-18 0,-7 6,-15 15,-25 10,-10 18,-16 26,-17 6,0 12,2 17,7zm-8 8c-1,-1 -3,-2 -4,-2 -2,0 -4,0 -7,2 -3,2 -7,6 -13,12 -6,6 -10,11 -12,14 -1,2 -2,5 -2,6 0,2 1,3 2,5 1,1 3,1 5,1 1,1 3,0 6,-2 3,-1 7,-5 13,-12 6,-6 10,-10 12,-13 1,-3 2,-5 2,-7 0,-2 -1,-3 -2,-4zm6 92l-10 -10 37 -38c-7,0 -14,-1 -20,-5l8 -9c4,2 8,3 14,4 5,0 10,0 14,-3l8 8 -51 53zm84 -12c4,6 6,11 5,18 -2,7 -8,15 -19,24 -10,9 -20,13 -27,13 -7,0 -12,-2 -16,-8 -5,-5 -6,-11 -5,-18 1,-7 8,-15 18,-23 11,-9 20,-14 28,-14 6,0 11,3 16,8zm-9 8c-1,-2 -2,-3 -4,-3 -2,0 -4,0 -6,1 -4,2 -9,6 -15,11 -7,5 -11,9 -13,12 -2,3 -3,5 -3,7 0,1 0,3 1,4 2,1 3,2 5,2 1,1 3,0 6,-1 3,-1 8,-5 15,-10 6,-6 11,-10 13,-13 2,-2 3,-4 3,-6 0,-2 -1,-3 -2,-4zm-8 95l-8 -12 44 -29c-7,-2 -13,-5 -19,-9l11 -7c3,2 7,4 12,6 5,2 10,2 14,1l7 9 -61 41zm86 5c4,6 4,12 1,18 -3,7 -11,14 -23,20 -12,6 -22,9 -30,7 -6,-1 -11,-5 -14,-11 -3,-6 -3,-13 0,-19 3,-6 10,-13 23,-19 12,-6 22,-9 29,-7 6,1 11,5 14,11zm-10 5c-1,-1 -2,-2 -3,-3 -2,-1 -4,-1 -7,0 -4,1 -9,3 -17,7 -7,4 -12,7 -15,9 -2,2 -4,4 -4,6 0,2 0,3 0,5 1,1 2,2 4,3 1,0 4,0 6,0 4,-1 10,-3 17,-7 8,-4 13,-7 15,-9 3,-2 4,-4 5,-6 0,-2 0,-3 -1,-5zm-27 90l-4 -13 49 -18c-7,-3 -12,-8 -17,-13l12 -5c2,3 6,6 11,9 4,3 9,4 14,4l4 10 -69 26zm86 23c2,7 1,13 -3,18 -5,6 -14,11 -27,15 -13,3 -23,3 -30,0 -6,-2 -10,-7 -12,-13 -2,-7 -1,-13 4,-19 4,-6 13,-10 26,-14 13,-3 23,-4 30,-1 6,3 10,7 12,14zm-11 3c-1,-1 -2,-3 -3,-4 -1,-1 -3,-1 -6,-1 -4,0 -10,1 -18,3 -9,3 -14,4 -17,6 -3,2 -5,3 -5,5 -1,1 -1,3 -1,5 1,1 2,2 3,3 1,1 4,2 6,2 4,0 10,-1 18,-4 9,-2 14,-4 17,-5 3,-2 5,-4 5,-5 1,-2 1,-3 1,-5zm-43 83l-2 -14 52 -9c-6,-4 -10,-9 -14,-16l13 -2c2,4 4,7 8,11 4,3 9,6 13,6l2 12 -72 12zm79 31c1,7 0,13 -4,18 -6,6 -15,9 -29,12 -13,2 -23,1 -30,-3 -6,-3 -9,-8 -10,-15 -1,-6 1,-13 5,-18 5,-5 14,-9 28,-11 13,-2 24,-1 30,2 6,3 9,8 10,15zm-11 2c0,-1 -1,-3 -2,-4 -2,-1 -4,-2 -7,-2 -3,0 -9,0 -18,2 -8,1 -14,2 -17,4 -3,1 -5,3 -6,4 -1,1 -1,3 -1,5 1,1 1,3 3,4 1,1 3,2 6,2 4,0 10,0 18,-2 9,-1 14,-3 17,-4 3,-1 5,-3 6,-4 1,-2 1,-3 1,-5zm-55 78l-1 -13 53 -4c-6,-5 -9,-11 -12,-18l12 0c2,3 4,7 8,11 4,4 8,6 12,8l1 11 -73 5zm74 45c0,7 -3,13 -8,17 -6,4 -16,7 -30,6 -13,0 -23,-2 -29,-7 -5,-4 -8,-9 -8,-16 0,-7 3,-13 9,-17 5,-5 15,-7 29,-7 13,0 23,3 29,8 5,4 8,9 8,16zm-12 0c0,-2 0,-3 -2,-4 -1,-2 -2,-3 -5,-3 -4,-1 -10,-2 -18,-2 -9,0 -15,0 -18,1 -3,1 -5,2 -6,3 -2,2 -2,3 -2,5 0,1 0,3 2,4 1,2 2,3 5,3 4,1 10,2 18,2 9,0 15,-1 18,-1 3,-1 5,-2 6,-4 2,-1 2,-2 2,-4zm-65 68l2 -14 52 5c-4,-6 -7,-12 -9,-19l13 1c0,4 2,8 5,12 3,5 7,8 11,10l-1 11 -73 -6zm68 55c-1,7 -4,12 -10,15 -6,4 -17,5 -30,3 -14,-2 -23,-6 -28,-12 -5,-4 -6,-10 -5,-17 1,-7 4,-12 10,-16 6,-3 16,-4 30,-2 14,2 23,6 28,12 5,4 6,10 5,17zm-11 -2c0,-1 0,-3 -1,-4 -1,-2 -3,-3 -5,-4 -4,-2 -10,-3 -18,-4 -9,-2 -15,-2 -18,-2 -3,1 -5,1 -7,3 -1,1 -2,2 -2,4 0,1 0,3 1,4 1,2 3,3 5,4 4,2 10,3 18,4 8,2 14,2 18,2 3,-1 5,-1 6,-3 2,-1 2,-2 3,-4zm-71 59l2 -14 52 8c-4,-6 -7,-12 -8,-19l13 1c0,4 2,8 4,13 3,5 6,8 11,11l-2 11 -72 -11zm61 59c-1,6 -5,11 -11,14 -7,3 -17,4 -30,1 -14,-3 -23,-8 -28,-14 -4,-5 -5,-10 -4,-17 2,-7 6,-12 12,-15 6,-3 16,-3 30,0 13,3 22,7 27,13 4,5 6,11 4,18zm-11 -3c0,-2 0,-3 -1,-5 -1,-1 -2,-3 -5,-4 -3,-1 -9,-3 -17,-5 -9,-2 -15,-3 -18,-3 -3,1 -5,1 -7,2 -1,1 -2,3 -2,4 -1,2 0,3 0,5 1,1 3,3 5,4 4,2 10,3 18,5 8,2 14,3 17,3 4,0 6,-1 7,-2 2,-1 2,-2 3,-4zm-78 53l4 -13 51 14c-3,-6 -5,-13 -6,-20l13 3c0,4 1,8 3,13 2,5 5,9 9,12l-3 11 -71 -20zm57 66c-3,6 -7,11 -13,13 -7,3 -17,2 -30,-3 -13,-4 -22,-9 -26,-16 -3,-5 -4,-11 -2,-18 2,-7 7,-11 13,-13 7,-3 17,-2 30,3 13,4 22,9 26,16 3,5 4,11 2,18zm-11 -4c0,-1 0,-3 0,-5 -1,-1 -3,-3 -5,-4 -3,-2 -9,-5 -17,-7 -8,-3 -14,-5 -17,-5 -3,0 -6,0 -7,1 -1,1 -2,2 -3,4 0,1 0,3 0,5 1,1 2,3 5,4 3,2 8,5 17,7 8,3 13,5 17,5 3,0 5,0 7,-1 1,-1 2,-2 3,-4zm-81 45l5 -13 49 19c-3,-6 -4,-13 -3,-20l12 4c-1,4 0,9 2,14 1,5 4,9 7,12l-4 11 -68 -27zm52 68c-2,6 -7,11 -13,13 -7,2 -17,0 -30,-4 -13,-5 -21,-11 -25,-18 -3,-5 -4,-11 -1,-18 2,-6 7,-11 14,-13 6,-2 16,0 29,5 13,5 21,10 25,17 3,5 4,11 1,18zm-11 -4c1,-2 1,-3 0,-5 0,-2 -1,-3 -4,-5 -3,-2 -8,-5 -16,-8 -8,-3 -14,-5 -17,-5 -3,0 -6,0 -7,1 -2,1 -3,2 -3,3 -1,2 -1,3 0,5 0,2 1,3 4,5 3,2 8,5 16,8 8,3 14,5 17,5 3,0 6,0 7,-1 2,-1 3,-2 3,-3zm-84 40l6 -12 48 21c-2,-7 -3,-13 -3,-21l12 5c0,4 0,9 1,14 2,5 4,9 7,13l-4 10 -67 -30zm47 73c-3,6 -8,10 -14,11 -7,2 -17,0 -30,-6 -12,-6 -20,-13 -23,-20 -3,-6 -3,-12 0,-18 3,-6 8,-10 15,-12 7,-1 17,1 29,7 12,6 20,13 24,20 2,5 2,11 -1,18zm-10 -5c0,-2 1,-3 0,-5 0,-2 -1,-3 -4,-5 -2,-3 -8,-6 -15,-10 -8,-3 -14,-5 -17,-6 -3,-1 -5,-1 -7,0 -1,1 -3,2 -3,3 -1,2 -1,3 -1,5 1,2 2,3 4,5 3,3 8,6 16,9 7,4 13,6 16,7 3,1 6,1 7,0 2,-1 3,-2 4,-3zm-85 34l6 -12 47 23c-2,-7 -3,-14 -2,-21l12 6c-1,3 -1,8 0,13 2,5 4,10 7,13l-5 10 -65 -32zm42 74c-3,6 -8,10 -14,11 -8,1 -18,-2 -30,-8 -12,-7 -19,-14 -22,-21 -3,-5 -3,-11 1,-18 3,-6 8,-10 15,-11 7,-1 17,2 29,8 12,7 19,14 22,21 3,6 3,12 -1,18zm-10 -6c1,-1 1,-3 1,-4 -1,-2 -2,-4 -4,-6 -3,-2 -8,-6 -15,-10 -8,-4 -13,-6 -16,-7 -4,-1 -6,-1 -8,0 -1,0 -2,1 -3,3 -1,1 -1,3 -1,5 1,1 2,3 4,5 3,2 8,6 15,10 8,4 13,6 16,7 4,1 6,1 8,0 1,0 2,-1 3,-3zm-88 30l7 -12 45 27c-1,-7 -1,-14 0,-21l11 7c-1,3 -1,8 0,13 1,6 3,10 6,14l-6 9 -63 -37zm39 78c-4,5 -9,9 -16,9 -7,1 -17,-2 -28,-10 -12,-7 -19,-14 -22,-22 -2,-5 -1,-11 3,-17 4,-6 9,-10 16,-10 7,-1 16,2 28,10 12,7 19,14 21,22 2,6 1,12 -2,18zm-10 -7c1,-1 1,-3 1,-4 0,-2 -1,-4 -3,-6 -3,-3 -8,-6 -15,-11 -7,-5 -12,-7 -15,-8 -4,-1 -6,-2 -8,-1 -1,0 -2,1 -3,3 -1,1 -2,3 -1,4 0,2 1,4 3,6 2,3 7,6 15,11 7,5 12,7 15,8 3,1 6,2 7,1 2,0 3,-1 4,-3zm-89 25l8 -12 44 29c-1,-7 -1,-14 1,-21l11 7c-1,3 -2,8 -1,13 0,5 2,10 5,14l-6 9 -62 -39zm35 78c-4,6 -9,9 -15,9 -8,1 -17,-3 -29,-11 -11,-8 -18,-15 -20,-22 -2,-7 -1,-12 3,-18 4,-6 9,-9 16,-10 7,0 17,3 28,11 11,8 18,16 20,23 2,6 1,12 -3,18zm-9 -7c1,-1 1,-3 1,-4 0,-2 -1,-4 -3,-6 -3,-3 -7,-7 -14,-12 -7,-4 -12,-7 -16,-8 -3,-2 -5,-2 -7,-1 -1,0 -3,1 -3,2 -1,2 -2,3 -2,5 0,2 2,3 3,6 3,2 8,6 15,11 7,5 12,8 15,9 3,1 5,1 7,1 2,-1 3,-1 4,-3zm-91 21l8 -11 43 31c-1,-7 0,-14 2,-21l10 8c-1,3 -2,8 -1,13 0,6 1,10 4,14l-7 9 -59 -43zm31 81c-4,5 -10,8 -16,8 -8,0 -17,-4 -28,-13 -11,-8 -17,-16 -19,-24 -1,-6 0,-12 5,-17 4,-6 10,-9 17,-9 7,0 16,5 26,13 11,9 17,17 19,24 2,6 0,12 -4,18zm-9 -7c1,-2 1,-3 1,-5 0,-2 -1,-4 -2,-6 -3,-3 -7,-7 -14,-12 -6,-5 -11,-9 -14,-10 -3,-1 -6,-2 -7,-2 -2,1 -3,2 -4,3 -1,1 -2,3 -2,4 0,2 1,4 3,6 2,3 7,7 13,13 7,5 12,8 15,10 3,1 5,1 7,1 2,0 3,-1 4,-2zm-91 15l9 -11 41 33c0,-7 0,-14 3,-21l10 8c-1,4 -2,8 -2,14 0,5 1,10 4,14l-7 9 -58 -46zm27 81c-4,5 -10,8 -16,8 -8,0 -17,-5 -27,-14 -11,-9 -17,-17 -18,-24 -2,-7 0,-12 5,-18 4,-5 10,-8 17,-8 7,1 16,5 26,14 11,9 17,17 18,25 2,6 0,12 -5,17zm-8 -7c1,-2 1,-3 1,-5 0,-1 -1,-4 -2,-6 -2,-3 -7,-7 -13,-13 -7,-5 -12,-9 -15,-10 -3,-1 -5,-2 -7,-2 -1,1 -3,1 -4,3 -1,1 -1,2 -1,4 0,2 1,4 2,6 2,3 7,7 13,13 7,5 12,9 15,10 3,2 5,2 6,2 2,0 4,-1 5,-2zm-93 11l9 -10 39 35c0,-7 2,-14 5,-20l9 8c-2,4 -3,8 -3,14 0,5 1,10 3,14l-8 8 -54 -49zm22 83c-5,5 -10,8 -17,7 -7,-1 -16,-6 -26,-16 -10,-9 -15,-18 -16,-25 -1,-7 1,-12 6,-17 5,-5 11,-8 17,-7 7,1 16,6 26,16 10,9 15,18 16,25 1,7 -1,12 -6,17zm-8 -8c1,-1 2,-2 2,-4 0,-2 -1,-4 -2,-6 -2,-3 -6,-8 -12,-14 -7,-6 -11,-10 -14,-11 -3,-2 -5,-3 -7,-2 -1,0 -3,0 -4,2 -1,1 -2,2 -2,4 0,2 1,4 2,6 2,3 6,8 12,14 6,6 11,10 14,11 3,2 5,2 7,2 1,0 3,-1 4,-2zm-93 6l10 -10 37 38c0,-7 2,-13 5,-20l9 9c-2,4 -3,8 -4,13 -1,6 0,11 2,15l-8 8 -51 -53zm16 85c-5,5 -11,6 -17,5 -7,-1 -16,-7 -25,-17 -9,-11 -14,-20 -14,-27 -1,-7 2,-12 7,-17 5,-4 11,-6 18,-5 7,1 15,7 24,18 10,10 14,19 15,26 0,7 -2,12 -8,17zm-7 -9c1,-1 2,-2 2,-4 0,-2 0,-4 -2,-6 -1,-3 -5,-8 -11,-15 -5,-6 -9,-10 -12,-12 -3,-2 -5,-3 -7,-3 -2,0 -3,1 -4,2 -1,1 -2,2 -2,4 -1,2 0,4 1,6 2,4 5,9 11,15 6,6 10,11 13,12 2,2 5,3 6,3 2,0 3,-1 5,-2zm-93 -1l11 -9 33 41c1,-7 3,-13 7,-19l8 9c-2,4 -3,8 -5,13 -1,5 -1,10 1,15l-9 7 -46 -57z"/>
   <path class="fil0" d="M1554 770c-26,434 -298,791 -658,1116"/>
   <path class="fil1" d="M1589 800c-1,7 -4,13 -9,16 -6,5 -16,6 -30,5 -14,-1 -23,-4 -29,-9 -5,-5 -7,-10 -6,-17 0,-7 4,-13 9,-17 6,-4 16,-5 30,-4 13,1 23,4 29,9 4,5 6,10 6,17zm-12 0c1,-2 0,-4 -1,-5 -1,-1 -3,-3 -5,-3 -4,-2 -10,-3 -18,-3 -9,-1 -15,-1 -18,0 -3,0 -6,1 -7,2 -1,2 -1,3 -2,5 0,1 1,3 2,4 1,2 2,3 5,4 4,1 10,2 18,2 9,1 15,1 18,1 3,-1 5,-2 6,-3 2,-1 2,-3 2,-4zm-69 63l2 -14 52 8c-4,-6 -6,-12 -8,-19l13 2c1,3 2,8 5,12 3,5 6,8 10,11l-2 11 -72 -11zm65 57c-2,7 -5,12 -11,15 -7,3 -17,4 -30,1 -14,-2 -23,-6 -28,-12 -4,-5 -6,-11 -5,-18 2,-7 5,-12 12,-15 6,-3 16,-4 29,-1 14,2 23,7 28,12 4,5 6,11 5,18zm-12 -2c0,-2 0,-3 -1,-5 0,-1 -2,-3 -5,-4 -3,-2 -9,-3 -17,-5 -9,-1 -15,-2 -18,-2 -3,1 -6,1 -7,2 -1,1 -2,3 -2,4 0,2 0,4 1,5 0,2 2,3 5,4 3,2 9,3 17,5 9,1 15,2 18,2 3,0 5,-1 7,-2 1,-1 2,-3 2,-4zm-75 55l3 -13 51 13c-3,-6 -5,-13 -6,-20l13 3c0,4 1,8 3,13 2,5 5,9 9,12l-3 11 -70 -19zm58 64c-2,6 -6,11 -12,13 -7,3 -17,3 -30,-1 -13,-4 -22,-9 -27,-15 -3,-6 -4,-12 -2,-18 2,-7 6,-12 12,-14 7,-3 17,-2 30,2 13,3 22,9 27,15 3,5 4,11 2,18zm-11 -4c0,-1 0,-3 0,-4 -1,-2 -3,-3 -5,-5 -3,-2 -9,-4 -17,-6 -8,-3 -14,-4 -17,-4 -4,0 -6,0 -7,1 -2,1 -3,2 -3,4 -1,1 -1,3 0,5 1,1 2,3 5,4 3,2 9,4 17,7 8,2 14,3 17,3 3,0 6,0 7,-1 2,-1 2,-2 3,-4zm-80 48l5 -13 49 18c-3,-6 -4,-13 -4,-20l12 4c0,4 1,8 2,13 2,6 5,10 8,13l-4 10 -68 -25zm52 69c-3,6 -7,10 -13,12 -8,2 -18,1 -31,-4 -12,-5 -21,-11 -24,-18 -4,-5 -4,-11 -1,-18 2,-7 7,-11 14,-13 6,-2 16,0 29,5 13,5 21,11 25,18 3,5 3,11 1,18zm-11 -5c1,-1 1,-3 0,-4 0,-2 -2,-4 -4,-5 -3,-2 -9,-5 -16,-8 -8,-4 -14,-5 -17,-6 -4,0 -6,0 -7,1 -2,1 -3,2 -4,3 0,2 0,3 0,5 1,2 2,3 5,5 3,2 8,5 16,8 8,3 13,5 17,5 3,1 5,1 7,0 1,-1 2,-2 3,-4zm-84 40l6 -12 48 21c-3,-7 -3,-14 -3,-21l12 5c0,4 0,9 1,14 2,5 4,9 7,12l-4 11 -67 -30zm45 73c-3,7 -8,10 -14,12 -7,1 -17,-1 -29,-8 -13,-6 -20,-12 -24,-19 -2,-6 -2,-12 1,-18 3,-7 9,-11 15,-12 7,-1 17,1 29,8 12,6 20,12 23,19 3,6 3,12 -1,18zm-10 -5c1,-1 1,-3 1,-5 -1,-1 -2,-3 -4,-5 -3,-2 -8,-6 -16,-9 -7,-4 -13,-7 -16,-7 -3,-1 -5,-1 -7,0 -2,0 -3,1 -3,3 -1,1 -1,3 -1,5 0,1 2,3 4,5 2,2 8,5 15,9 8,4 13,7 17,7 3,1 5,1 7,0 1,0 2,-1 3,-3zm-87 33l7 -13 46 25c-2,-6 -2,-13 -1,-20l12 6c-1,3 -1,8 0,13 1,6 3,10 6,13l-5 10 -65 -34zm40 76c-4,6 -9,9 -15,10 -8,1 -17,-2 -29,-9 -12,-8 -19,-15 -22,-22 -2,-6 -1,-12 3,-18 3,-6 9,-9 16,-10 6,-1 16,2 28,9 11,8 19,15 21,22 2,6 2,12 -2,18zm-10 -6c1,-2 1,-3 1,-5 0,-1 -1,-3 -3,-5 -3,-3 -8,-7 -15,-11 -7,-5 -13,-7 -16,-8 -3,-1 -5,-1 -7,-1 -1,1 -3,2 -4,3 0,1 -1,3 0,5 0,1 1,3 3,5 2,3 7,7 15,11 7,4 12,7 15,8 3,1 6,1 7,1 2,-1 3,-2 4,-3zm-89 26l8 -12 44 28c-1,-6 -1,-13 1,-20l10 6c-1,4 -1,9 0,14 0,5 2,10 5,14l-6 9 -62 -39zm35 79c-5,5 -10,8 -16,9 -8,0 -17,-4 -28,-12 -12,-8 -18,-16 -20,-23 -2,-6 -1,-12 3,-18 4,-5 10,-8 17,-9 7,0 16,4 27,12 11,8 18,16 20,23 2,6 1,12 -3,18zm-10 -7c1,-1 2,-3 1,-5 0,-1 -1,-3 -3,-5 -2,-3 -7,-7 -14,-12 -6,-5 -11,-8 -15,-9 -3,-2 -5,-2 -7,-2 -1,1 -3,2 -3,3 -1,1 -2,3 -2,5 0,1 1,3 3,6 3,2 7,6 14,11 7,5 12,8 15,9 3,2 6,2 7,2 2,-1 3,-2 4,-3zm-90 19l8 -11 42 32c-1,-7 0,-14 3,-21l10 8c-2,3 -2,8 -2,13 0,6 1,10 4,14l-7 9 -58 -44zm30 80c-4,6 -10,9 -16,9 -7,0 -17,-4 -28,-13 -10,-8 -17,-16 -19,-24 -1,-6 0,-12 5,-17 4,-6 10,-9 17,-9 7,0 16,4 27,13 10,9 17,16 18,24 2,6 1,12 -4,17zm-9 -7c1,-1 2,-2 2,-4 -1,-2 -1,-4 -3,-6 -2,-3 -7,-7 -14,-12 -6,-6 -11,-9 -14,-10 -3,-2 -6,-2 -7,-2 -2,1 -3,2 -4,3 -1,1 -2,3 -2,4 0,2 1,4 3,6 2,3 7,7 13,13 7,5 12,8 15,9 3,2 5,2 7,2 2,-1 3,-1 4,-3zm-92 15l9 -10 40 34c0,-7 1,-14 4,-21l10 8c-2,4 -3,8 -3,14 0,5 1,10 3,14l-7 9 -56 -48zm26 82c-4,5 -10,8 -16,8 -8,-1 -17,-5 -27,-15 -10,-9 -16,-17 -18,-24 -1,-7 1,-12 5,-18 5,-5 11,-8 18,-7 7,0 16,5 26,14 10,9 16,17 18,25 1,6 -1,12 -6,17zm-8 -7c1,-2 1,-3 1,-5 0,-2 0,-4 -2,-6 -2,-3 -6,-7 -13,-13 -6,-6 -11,-9 -14,-11 -3,-1 -5,-2 -7,-1 -1,0 -3,1 -4,2 -1,1 -1,3 -2,4 0,2 1,4 3,6 2,3 6,8 13,13 6,6 11,10 14,11 3,1 5,2 7,2 1,0 3,-1 4,-2zm-92 10l9 -10 39 35c0,-7 1,-14 4,-20l10 8c-2,4 -3,8 -3,13 -1,6 0,11 3,15l-8 8 -54 -49zm22 83c-5,5 -10,7 -17,7 -7,-1 -16,-6 -26,-16 -10,-9 -15,-18 -16,-25 -1,-7 1,-12 6,-17 4,-6 10,-8 17,-7 7,1 16,6 26,15 10,10 15,18 16,26 1,6 -1,12 -6,17zm-8 -8c1,-1 2,-3 2,-4 0,-2 -1,-4 -2,-6 -2,-4 -6,-8 -13,-14 -6,-6 -10,-10 -13,-11 -3,-2 -5,-3 -7,-3 -2,1 -3,1 -4,3 -1,1 -2,2 -2,4 0,2 1,4 2,6 2,3 6,8 12,14 6,6 11,9 14,11 3,2 5,2 7,2 1,0 3,-1 4,-2zm-92 6l10 -9 37 37c0,-7 2,-14 5,-21l9 9c-2,4 -3,8 -4,13 0,6 1,11 3,15l-8 8 -52 -52zm19 84c-5,5 -10,7 -17,6 -7,-1 -16,-6 -25,-16 -10,-10 -15,-19 -16,-26 -1,-7 1,-12 6,-17 5,-5 11,-7 18,-6 7,0 15,6 25,16 10,10 15,18 16,26 1,6 -2,12 -7,17zm-8 -9c1,-1 2,-2 2,-4 1,-1 0,-4 -2,-6 -1,-3 -5,-8 -11,-14 -6,-6 -11,-10 -14,-12 -2,-1 -5,-2 -6,-2 -2,0 -3,1 -5,2 -1,1 -1,3 -2,4 0,2 1,4 2,6 2,4 6,8 12,14 6,7 10,10 13,12 3,2 5,3 7,2 2,0 3,0 4,-2zm-92 4l10 -10 36 38c1,-7 3,-13 6,-20l9 10c-2,3 -3,7 -4,13 -1,5 0,10 2,14l-9 8 -50 -53zm17 84c-6,5 -11,7 -18,6 -7,-2 -16,-7 -25,-17 -9,-11 -14,-20 -15,-27 0,-7 2,-12 7,-17 6,-5 12,-6 19,-5 6,1 15,7 24,17 9,10 14,19 15,26 0,7 -2,12 -7,17zm-8 -8c1,-2 2,-3 2,-5 0,-1 0,-3 -2,-6 -1,-3 -5,-8 -11,-14 -6,-7 -10,-11 -13,-12 -3,-2 -5,-3 -6,-3 -2,0 -3,1 -5,2 -1,1 -2,2 -2,4 0,2 0,4 2,6 1,4 5,8 11,15 6,6 10,10 13,12 3,2 5,2 6,2 2,0 4,0 5,-1z"/>
   <path class="fil0" d="M624 170c160,-112 375,-152 535,-124"/>
   <path class="fil1" d="M628 123c6,-4 12,-5 18,-3 7,3 14,10 22,21 7,12 10,22 10,29 -1,7 -4,12 -10,15 -6,4 -12,5 -19,3 -6,-2 -14,-10 -21,-21 -7,-12 -11,-21 -10,-29 1,-6 4,-11 10,-15zm6 10c-1,0 -2,2 -3,3 0,2 0,4 1,7 1,3 4,9 8,16 5,7 9,12 11,14 2,2 4,4 6,4 2,0 3,0 5,-1 1,-1 2,-2 3,-4 0,-2 0,-4 -1,-7 -1,-3 -4,-8 -9,-16 -4,-7 -8,-12 -10,-14 -3,-2 -5,-3 -6,-3 -2,-1 -4,0 -5,1zm93 17l-13 7 -24 -46c-3,6 -6,12 -11,17l-6 -11c2,-3 5,-6 7,-11 2,-5 3,-10 2,-15l10 -5 35 64zm12 -85c7,-3 13,-3 18,0 7,4 13,12 18,25 5,13 7,23 5,30 -2,6 -6,11 -12,13 -7,3 -13,3 -19,-1 -6,-3 -12,-11 -17,-24 -6,-13 -7,-23 -5,-30 2,-6 6,-11 12,-13zm5 10c-2,1 -3,2 -4,3 -1,2 -1,4 0,7 0,4 2,9 5,17 3,8 6,14 8,16 2,3 4,4 5,5 2,0 4,0 5,0 2,-1 3,-2 4,-4 0,-1 1,-3 0,-6 0,-4 -2,-10 -5,-17 -4,-8 -6,-14 -8,-16 -2,-3 -4,-4 -6,-5 -1,0 -3,0 -4,0zm87 34l-13 4 -16 -50c-4,6 -8,11 -14,16l-4 -12c3,-3 6,-6 9,-11 3,-4 5,-9 5,-13l10 -4 23 70zm25 -83c7,-2 12,-1 18,3 6,4 10,13 14,27 3,13 3,23 0,30 -2,6 -7,10 -14,12 -7,1 -13,0 -18,-4 -6,-4 -10,-13 -14,-27 -3,-13 -3,-23 0,-30 2,-6 7,-10 14,-11zm3 11c-2,0 -3,1 -4,3 -1,1 -2,3 -2,6 0,4 1,10 3,18 2,8 4,14 6,17 2,2 3,4 5,5 1,1 3,1 4,0 2,0 3,-1 4,-2 1,-2 2,-4 2,-7 0,-3 -1,-9 -3,-18 -3,-8 -4,-13 -6,-16 -2,-3 -3,-5 -5,-6 -1,0 -3,-1 -4,0zm82 45l-14 3 -9 -52c-4,6 -10,10 -16,14l-2 -13c3,-2 6,-4 10,-8 4,-5 6,-9 7,-13l11 -3 13 72zm37 -78c7,-1 12,1 17,6 5,5 8,15 10,29 1,13 0,23 -4,30 -4,5 -9,8 -16,9 -7,1 -13,-2 -18,-7 -5,-5 -8,-14 -9,-28 -2,-14 0,-24 4,-30 3,-5 9,-8 16,-9zm1 11c-2,1 -3,1 -4,2 -2,2 -2,4 -3,7 0,3 0,9 0,18 1,8 2,14 3,17 2,3 3,5 4,6 2,1 3,2 5,1 1,0 3,0 4,-2 1,-1 2,-3 2,-6 1,-3 1,-9 0,-18 -1,-8 -2,-14 -3,-17 -1,-3 -2,-5 -4,-6 -1,-1 -3,-2 -4,-2zm74 58l-14 0 -1 -52c-5,5 -11,8 -17,11l-1 -13c4,-1 8,-4 12,-7 4,-3 7,-7 9,-12l11 0 1 73zm50 -71c7,0 13,3 16,8 4,7 6,17 5,31 -1,13 -5,23 -10,29 -4,4 -10,6 -17,6 -7,-1 -12,-4 -16,-10 -4,-6 -5,-15 -4,-29 1,-14 4,-24 9,-29 5,-5 10,-7 17,-6zm-1 11c-1,0 -3,0 -4,1 -2,1 -3,3 -4,6 -1,3 -2,9 -3,18 0,8 0,14 0,18 1,3 2,5 3,6 1,1 3,2 4,2 2,0 3,0 5,-1 1,-1 2,-3 3,-6 1,-3 2,-9 3,-18 1,-8 1,-14 0,-17 0,-3 -1,-6 -2,-7 -2,-1 -3,-2 -5,-2zm63 70l-14 -2 9 -52c-6,4 -12,6 -20,7l2 -12c4,-1 9,-2 13,-5 5,-2 8,-6 11,-10l11 2 -12 72z"/>
   <path class="fil0" d="M1022 288c226,-17 427,119 495,309"/>
   <path class="fil1" d="M1051 248c7,0 12,2 16,7 5,6 7,16 8,30 0,13 -3,23 -7,29 -4,5 -10,8 -17,8 -7,0 -12,-3 -17,-8 -4,-5 -6,-15 -7,-29 0,-14 3,-24 7,-30 4,-5 10,-7 17,-7zm0 11c-2,0 -3,1 -5,2 -1,1 -2,3 -3,6 -1,3 -1,9 -1,18 0,8 1,14 2,18 0,3 2,5 3,6 1,1 3,1 4,1 2,0 3,0 5,-1 1,-1 2,-3 3,-6 1,-4 1,-10 1,-18 0,-9 -1,-15 -2,-18 0,-3 -2,-5 -3,-6 -1,-1 -3,-2 -4,-2zm69 65l-14 -1 5 -53c-5,5 -12,8 -19,9l1 -13c4,0 8,-2 13,-5 4,-3 8,-6 10,-11l11 1 -7 73zm60 -63c7,2 12,5 15,11 3,7 3,17 0,31 -4,13 -8,22 -14,27 -5,4 -11,5 -18,3 -7,-1 -12,-5 -15,-12 -3,-6 -3,-16 1,-30 3,-13 8,-22 14,-27 5,-4 10,-5 17,-3zm-2 11c-2,0 -4,0 -5,1 -2,0 -3,2 -4,5 -2,3 -4,9 -6,17 -2,8 -3,14 -3,17 0,4 1,6 2,7 1,2 2,3 4,3 1,0 3,0 4,-1 2,0 3,-2 5,-5 1,-3 3,-9 5,-17 2,-8 3,-14 3,-17 0,-4 -1,-6 -2,-7 -1,-2 -2,-2 -3,-3zm51 80l-13 -5 18 -49c-6,2 -13,4 -21,3l5 -12c4,1 8,0 13,-2 5,-1 10,-4 13,-8l10 4 -25 69zm73 -47c6,3 10,8 11,14 2,7 0,17 -7,29 -6,13 -12,21 -19,24 -6,2 -12,2 -18,-1 -7,-3 -11,-8 -12,-15 -1,-7 1,-16 7,-29 7,-12 13,-20 20,-23 6,-3 12,-3 18,1zm-5 10c-2,-1 -3,-1 -5,-1 -1,1 -3,2 -5,4 -3,3 -6,8 -10,16 -3,7 -6,13 -6,16 -1,3 -1,6 0,7 0,2 1,3 3,4 1,0 3,1 4,0 2,0 4,-1 6,-4 2,-2 5,-8 9,-15 4,-8 6,-13 7,-16 1,-4 1,-6 0,-8 -1,-1 -2,-2 -3,-3zm31 90l-12 -8 29 -44c-7,1 -13,1 -20,-1l7 -10c3,1 8,1 13,0 5,0 10,-2 14,-4l9 6 -40 61zm82 -28c5,4 8,10 8,16 -1,8 -5,17 -14,27 -9,11 -17,17 -25,18 -6,2 -12,0 -17,-5 -6,-4 -8,-10 -8,-17 0,-7 5,-16 14,-26 9,-11 17,-17 25,-18 6,-1 12,0 17,5zm-7 9c-2,-2 -3,-2 -5,-2 -2,0 -4,1 -6,2 -3,2 -7,7 -13,13 -5,7 -9,12 -10,15 -2,2 -2,5 -2,6 0,2 1,3 2,5 2,1 3,1 5,1 1,0 3,-1 6,-2 3,-2 7,-7 13,-13 5,-7 9,-11 10,-14 2,-3 2,-6 2,-7 0,-2 -1,-3 -2,-4zm8 95l-9 -11 38 -35c-6,-1 -13,-3 -19,-6l9 -9c3,2 8,3 13,4 5,1 10,1 14,-1l8 8 -54 50zm88 -5c4,6 5,12 3,18 -3,7 -10,14 -21,22 -12,8 -21,11 -29,10 -6,0 -11,-3 -15,-9 -4,-6 -5,-12 -3,-19 2,-7 9,-14 21,-21 11,-8 21,-11 29,-11 6,1 11,4 15,10zm-10 6c-1,-1 -2,-2 -4,-3 -1,0 -3,0 -6,1 -4,1 -9,4 -16,9 -7,5 -12,8 -14,11 -2,2 -4,4 -4,6 0,1 0,3 1,4 1,2 2,3 4,3 2,1 4,0 7,0 3,-2 8,-5 16,-9 7,-5 11,-9 14,-11 2,-2 3,-5 3,-6 0,-2 0,-3 -1,-5zm-17 93l-6 -12 47 -23c-7,-3 -12,-6 -17,-12l11 -5c3,3 6,5 11,7 5,3 10,4 14,3l5 10 -65 32zm82 8c2,6 2,12 -1,18 -4,6 -13,12 -26,17 -12,5 -22,6 -30,4 -6,-2 -10,-6 -13,-13 -2,-6 -2,-13 2,-19 3,-6 12,-11 25,-16 12,-5 22,-6 30,-4 6,2 10,6 13,13zm-11 4c-1,-2 -2,-3 -3,-4 -2,-1 -4,-1 -7,-1 -3,1 -9,3 -17,6 -8,3 -14,5 -16,7 -3,2 -4,4 -5,6 -1,1 0,3 0,4 1,2 2,3 3,4 2,1 4,1 7,0 3,0 9,-2 17,-5 8,-3 13,-5 16,-7 3,-2 4,-4 5,-6 0,-1 0,-3 0,-4z"/>
   <path class="fil0" d="M0 951c175,-103 280,-175 319,-321 40,-153 122,-292 229,-401"/>
   <path class="fil1" d="M11 901c6,-3 12,-4 18,-2 7,3 14,11 21,22 7,12 10,22 9,30 -1,6 -4,11 -10,14 -6,4 -13,4 -19,2 -7,-3 -13,-10 -20,-22 -7,-12 -10,-21 -9,-29 1,-6 4,-11 10,-15zm6 10c-1,1 -2,2 -3,4 -1,1 0,4 0,6 1,4 4,9 8,17 5,7 8,12 10,14 3,3 5,4 6,4 2,1 3,0 5,-1 1,0 2,-2 3,-3 0,-2 0,-4 0,-7 -1,-3 -4,-9 -8,-16 -5,-8 -8,-12 -10,-15 -3,-2 -5,-3 -6,-4 -2,0 -4,0 -5,1zm89 17l-11 8 -29 -44c-1,6 -4,13 -9,18l-7 -11c3,-2 5,-6 7,-12 1,-5 2,-9 1,-14l9 -6 39 61zm-3 -84c6,-4 12,-5 18,-3 7,2 15,9 22,20 8,12 11,21 11,29 -1,6 -4,11 -10,15 -6,4 -12,5 -18,3 -7,-2 -14,-9 -22,-21 -8,-11 -11,-21 -11,-28 1,-6 4,-12 10,-15zm6 9c-1,1 -2,2 -2,4 -1,2 -1,4 0,6 2,4 5,9 9,16 5,7 9,12 11,14 3,2 5,4 6,4 2,0 3,0 5,-1 1,-1 2,-2 3,-4 0,-2 0,-4 -1,-7 -1,-3 -4,-8 -9,-16 -5,-7 -8,-11 -11,-13 -2,-3 -4,-4 -6,-4 -2,0 -3,0 -5,1zm90 11l-11 8 -32 -41c-1,7 -4,13 -8,19l-8 -10c3,-3 4,-7 6,-13 1,-5 1,-10 0,-14l9 -7 44 58zm-16 -83c6,-5 11,-6 18,-5 7,1 16,7 25,17 9,10 14,19 15,27 0,6 -2,11 -7,16 -6,5 -12,7 -19,6 -6,-1 -15,-7 -24,-18 -9,-10 -14,-19 -15,-26 0,-7 2,-12 7,-17zm8 9c-1,1 -2,2 -2,4 0,2 0,4 2,6 1,4 5,8 11,15 6,6 10,10 13,12 3,2 5,2 6,2 2,0 3,0 5,-1 1,-1 2,-3 2,-5 0,-1 0,-3 -2,-6 -1,-3 -5,-8 -11,-14 -6,-7 -10,-11 -13,-12 -3,-2 -5,-3 -6,-3 -2,0 -4,1 -5,2zm89 -4l-9 10 -40 -34c0,7 -1,14 -4,20l-9 -8c1,-4 2,-8 2,-13 1,-6 0,-11 -3,-15l8 -8 55 48zm-36 -76c4,-6 9,-9 16,-10 7,-1 17,3 28,10 12,8 19,15 21,22 2,6 1,12 -2,18 -4,6 -10,10 -17,10 -6,1 -16,-3 -27,-10 -12,-8 -19,-15 -21,-22 -2,-7 -1,-12 2,-18zm10 6c-1,1 -1,3 -1,5 0,1 1,3 3,5 3,3 8,7 15,11 7,5 12,8 15,9 3,1 6,1 7,1 2,-1 3,-2 4,-3 1,-1 1,-3 1,-5 0,-1 -1,-3 -3,-5 -3,-3 -7,-7 -15,-11 -7,-5 -12,-8 -15,-9 -3,-1 -6,-1 -7,-1 -2,1 -3,2 -4,3zm83 -27l-6 13 -48 -22c3,7 3,14 3,21l-12 -5c1,-4 0,-9 -1,-14 -2,-5 -4,-9 -7,-13l4 -10 67 30zm-56 -62c2,-7 6,-12 12,-14 7,-3 17,-2 30,1 13,4 22,9 27,15 3,6 4,11 2,18 -2,7 -6,12 -12,14 -7,3 -17,2 -30,-1 -13,-4 -22,-9 -26,-15 -4,-6 -5,-12 -3,-18zm11 3c0,1 0,3 0,5 1,1 3,3 5,4 3,2 9,4 17,7 8,2 14,3 17,3 4,0 6,0 7,-1 2,-1 3,-2 3,-4 1,-2 1,-3 0,-5 -1,-1 -2,-3 -5,-4 -3,-2 -9,-4 -17,-7 -8,-2 -14,-3 -17,-3 -3,0 -6,0 -7,1 -2,1 -3,2 -3,4zm79 -49l-5 14 -49 -17c2,6 4,13 4,20l-12 -4c0,-3 -1,-8 -3,-13 -2,-5 -4,-9 -8,-12l4 -11 69 23zm-52 -69c3,-6 7,-11 13,-12 7,-2 17,-1 30,4 13,6 21,12 25,18 3,6 3,12 1,18 -3,7 -8,11 -14,13 -7,2 -17,0 -30,-5 -13,-5 -21,-11 -24,-18 -4,-5 -4,-11 -1,-18zm11 4c-1,2 -1,4 -1,5 1,2 2,3 5,5 3,2 8,5 16,8 8,4 13,6 17,6 3,0 5,0 7,-1 1,0 2,-1 3,-3 1,-2 1,-3 0,-5 0,-1 -2,-3 -4,-5 -3,-2 -8,-5 -16,-8 -8,-3 -14,-5 -17,-6 -3,0 -6,0 -7,1 -2,1 -3,2 -3,3zm84 -38l-6 12 -47 -23c2,7 3,13 2,21l-12 -6c1,-4 1,-8 -1,-13 -1,-6 -3,-10 -6,-13l5 -11 65 33zm-42 -76c3,-6 8,-9 15,-10 7,-1 17,1 29,8 12,7 19,14 22,21 3,6 2,12 -1,18 -4,6 -9,10 -16,11 -7,1 -16,-2 -29,-9 -11,-7 -19,-14 -22,-21 -2,-6 -1,-12 2,-18zm10 6c-1,1 -1,3 -1,5 1,1 2,3 4,5 2,3 7,6 15,10 7,5 13,7 16,8 3,1 5,1 7,0 2,0 3,-1 4,-3 0,-1 1,-3 0,-4 0,-2 -1,-4 -3,-6 -3,-2 -8,-6 -15,-10 -8,-4 -13,-7 -16,-8 -3,0 -6,-1 -7,0 -2,1 -3,2 -4,3zm89 -28l-7 12 -44 -29c1,7 0,14 -1,21l-11 -7c1,-4 1,-8 1,-14 -1,-5 -2,-10 -5,-13l6 -10 61 40zm-33 -80c5,-5 10,-8 16,-9 8,0 17,4 28,13 11,8 18,16 20,23 1,6 0,12 -4,18 -4,5 -10,8 -17,9 -7,0 -16,-4 -27,-13 -11,-8 -17,-16 -19,-23 -2,-6 -1,-12 3,-18zm10 7c-1,1 -2,3 -2,5 0,1 1,3 3,5 2,3 7,7 14,13 7,5 12,8 15,9 3,1 5,2 7,1 1,0 3,-1 4,-2 1,-2 1,-3 1,-5 0,-1 -1,-3 -3,-6 -2,-2 -7,-7 -13,-12 -7,-5 -12,-8 -15,-9 -3,-1 -6,-2 -7,-1 -2,0 -3,1 -4,2zm92 -16l-9 10 -40 -34c0,7 -1,14 -4,21l-10 -8c2,-4 3,-8 3,-14 0,-5 -1,-10 -3,-14l7 -8 56 47z"/>
   <path class="fil0" d="M378 1614c373,-189 594,-487 689,-879"/>
   <path class="fil1" d="M385 1568c7,-3 13,-4 19,-1 7,3 13,11 20,23 6,12 8,22 7,30 -1,6 -5,11 -11,14 -7,3 -13,3 -19,1 -7,-3 -13,-11 -19,-23 -7,-12 -9,-22 -8,-30 2,-6 5,-11 11,-14zm6 10c-2,1 -3,2 -3,4 -1,1 -1,3 0,6 0,4 3,9 7,17 4,8 7,13 9,15 2,3 4,4 6,4 1,1 3,0 4,0 2,-1 3,-2 4,-4 0,-1 0,-4 0,-6 -1,-4 -4,-10 -8,-17 -3,-8 -7,-13 -9,-15 -2,-3 -4,-4 -6,-4 -1,-1 -3,-1 -4,0zm88 22l-12 7 -27 -46c-2,7 -5,13 -10,19l-6 -11c2,-3 4,-7 6,-12 2,-5 3,-10 2,-15l10 -5 37 63zm-1 -85c6,-4 12,-5 18,-3 7,3 14,10 22,22 7,11 10,21 9,29 0,6 -4,11 -10,15 -6,3 -12,4 -18,2 -7,-3 -14,-10 -21,-21 -8,-12 -11,-22 -10,-29 1,-7 4,-12 10,-15zm6 9c-1,1 -2,3 -3,4 0,2 0,4 1,7 1,3 4,9 8,16 5,7 8,12 11,14 2,2 4,4 6,4 1,0 3,0 4,-1 2,-1 3,-2 3,-4 1,-2 1,-4 0,-6 -1,-4 -4,-9 -9,-17 -4,-7 -8,-12 -10,-14 -3,-2 -5,-3 -6,-4 -2,0 -4,1 -5,1zm90 15l-12 8 -30 -43c-1,7 -4,13 -8,19l-8 -11c3,-3 5,-7 6,-12 2,-5 2,-10 1,-14l9 -7 42 60zm-8 -85c6,-4 12,-5 18,-4 7,2 15,9 23,20 9,11 13,20 12,28 0,6 -3,12 -8,16 -6,4 -12,5 -19,4 -7,-2 -14,-9 -23,-20 -8,-11 -12,-20 -12,-28 1,-6 4,-12 9,-16zm7 10c-1,1 -2,2 -2,4 -1,1 -1,3 1,6 1,3 4,9 9,15 5,7 9,12 12,14 2,2 5,3 6,3 2,0 3,0 5,-1 1,-1 2,-3 2,-4 1,-2 0,-4 -1,-7 -1,-3 -4,-8 -9,-15 -6,-7 -9,-11 -12,-14 -3,-2 -5,-3 -6,-3 -2,0 -4,1 -5,2zm91 7l-11 8 -34 -40c-1,7 -3,13 -7,20l-8 -10c2,-3 4,-8 5,-13 1,-5 1,-10 -1,-14l9 -8 47 57zm-15 -84c5,-5 11,-6 17,-5 8,1 16,7 25,17 9,10 14,19 14,27 1,6 -2,12 -7,17 -5,4 -11,6 -18,5 -7,-1 -15,-7 -24,-18 -9,-10 -14,-19 -15,-26 0,-7 2,-12 8,-17zm7 9c-1,1 -2,2 -2,4 0,1 0,4 2,6 1,3 5,8 11,15 5,6 10,10 12,12 3,2 5,3 7,3 2,0 3,-1 4,-2 2,-1 2,-3 3,-4 0,-2 -1,-4 -2,-7 -2,-3 -5,-8 -11,-14 -6,-6 -10,-11 -13,-12 -2,-2 -5,-3 -6,-3 -2,0 -3,1 -5,2zm91 -1l-10 10 -37 -38c0,7 -2,14 -5,20l-9 -9c2,-3 3,-7 4,-13 0,-5 0,-10 -2,-14l8 -8 51 52zm-22 -82c5,-5 11,-8 17,-7 7,1 16,6 26,15 10,10 16,18 17,26 1,6 -1,12 -6,17 -5,5 -11,7 -18,7 -7,-1 -15,-6 -25,-16 -10,-9 -16,-18 -17,-25 -1,-7 1,-12 6,-17zm8 8c-1,1 -1,2 -1,4 -1,2 0,4 2,6 2,3 6,8 12,14 6,6 11,9 14,11 2,2 5,2 6,2 2,0 3,-1 5,-2 1,-1 1,-3 1,-4 1,-2 0,-4 -2,-7 -2,-3 -6,-7 -12,-13 -6,-6 -11,-10 -13,-11 -3,-2 -6,-3 -7,-2 -2,0 -3,0 -5,2zm90 -9l-9 10 -40 -33c1,6 -1,13 -3,20l-10 -8c2,-4 2,-8 3,-13 0,-6 -1,-11 -4,-15l8 -8 55 47zm-29 -80c5,-6 10,-8 16,-8 8,0 17,4 28,13 11,8 17,16 19,24 1,6 0,12 -5,17 -4,6 -10,8 -17,8 -7,0 -16,-4 -26,-13 -11,-8 -17,-16 -19,-24 -2,-6 0,-12 4,-17zm9 7c-1,1 -1,3 -1,5 0,1 1,3 2,6 3,2 7,7 14,12 6,5 11,9 14,10 3,1 6,2 7,1 2,0 3,-1 4,-2 1,-1 2,-3 2,-4 0,-2 -1,-4 -3,-6 -2,-3 -6,-8 -13,-13 -7,-5 -12,-9 -15,-10 -3,-1 -5,-2 -7,-1 -1,0 -3,1 -4,2zm89 -17l-8 12 -43 -31c1,7 0,14 -2,21l-10 -7c1,-4 1,-8 1,-14 0,-5 -2,-10 -4,-14l6 -9 60 42zm-36 -77c4,-6 9,-9 16,-10 7,0 17,3 28,11 12,8 18,15 21,23 2,6 1,11 -3,17 -4,6 -9,9 -16,10 -7,1 -17,-3 -28,-11 -12,-7 -18,-15 -21,-22 -2,-6 -1,-12 3,-18zm10 6c-1,2 -2,3 -1,5 0,2 1,4 3,6 2,3 7,6 14,11 7,5 12,8 15,9 4,1 6,1 7,1 2,-1 3,-2 4,-3 1,-1 2,-3 1,-5 0,-1 -1,-3 -3,-5 -2,-3 -7,-7 -14,-12 -7,-4 -12,-7 -15,-8 -4,-2 -6,-2 -7,-1 -2,0 -3,1 -4,2zm86 -24l-7 12 -45 -26c1,6 1,13 0,20l-11 -6c1,-4 1,-8 0,-14 -1,-5 -3,-9 -6,-13l6 -10 63 37zm-43 -72c3,-6 8,-10 14,-11 7,-2 17,1 30,7 12,6 19,13 23,20 2,6 2,12 -1,18 -3,6 -8,10 -15,11 -7,2 -17,-1 -29,-7 -12,-6 -20,-13 -23,-20 -3,-6 -3,-12 1,-18zm10 5c-1,2 -1,3 -1,5 1,1 2,3 4,5 3,3 8,6 16,10 7,4 13,6 16,7 3,0 6,0 7,0 2,-1 3,-2 4,-3 0,-2 0,-4 0,-5 0,-2 -2,-4 -4,-5 -2,-3 -8,-6 -15,-10 -8,-4 -13,-6 -16,-7 -4,-1 -6,-1 -8,0 -1,1 -2,2 -3,3zm85 -33l-6 12 -47 -22c2,6 2,13 1,20l-11 -5c0,-4 0,-8 -1,-14 -1,-5 -3,-9 -7,-12l5 -11 66 32zm-49 -69c2,-6 7,-10 13,-12 7,-2 17,-1 30,5 13,5 21,11 25,18 3,5 3,11 0,18 -3,6 -7,11 -14,12 -7,2 -17,1 -29,-5 -13,-5 -21,-11 -25,-18 -3,-5 -3,-11 0,-18zm10 5c0,1 -1,3 0,4 0,2 2,4 4,5 3,3 9,5 16,9 8,3 14,5 17,5 3,1 6,1 7,0 2,-1 3,-2 3,-4 1,-1 1,-3 1,-4 -1,-2 -2,-4 -5,-5 -2,-3 -8,-5 -16,-9 -8,-3 -13,-5 -16,-5 -4,-1 -6,-1 -8,0 -1,1 -2,2 -3,4zm82 -40l-5 13 -49 -19c3,6 4,13 4,20l-12 -4c0,-4 -1,-8 -2,-14 -2,-5 -4,-9 -8,-12l4 -10 68 26zm-54 -65c2,-7 6,-11 12,-13 7,-3 17,-2 30,2 13,5 22,10 26,16 4,6 4,12 2,18 -2,7 -6,12 -13,14 -6,2 -16,1 -30,-3 -13,-4 -21,-10 -25,-16 -4,-5 -5,-11 -2,-18zm11 4c-1,1 -1,3 0,4 0,2 2,4 4,5 3,2 9,4 17,7 8,3 14,4 17,4 4,1 6,0 7,-1 2,0 3,-2 3,-3 1,-2 1,-3 0,-5 0,-2 -2,-3 -4,-5 -4,-2 -9,-4 -17,-7 -8,-2 -14,-4 -17,-4 -4,0 -6,0 -7,1 -2,1 -3,2 -3,4zm79 -46l-4 13 -51 -15c3,6 5,13 5,20l-12 -4c0,-4 -1,-8 -3,-13 -2,-5 -5,-9 -8,-12l3 -11 70 22zm-60 -61c2,-7 6,-12 12,-14 7,-3 17,-3 30,0 14,4 23,8 27,14 4,6 5,11 3,18 -1,7 -5,12 -12,15 -6,3 -16,2 -29,-1 -14,-3 -23,-8 -27,-14 -4,-5 -5,-11 -4,-18zm12 3c-1,1 -1,3 0,4 1,2 2,3 5,5 3,2 9,4 17,6 9,2 14,3 18,3 3,0 5,-1 7,-2 1,-1 2,-2 2,-4 1,-1 1,-3 0,-4 -1,-2 -3,-3 -5,-5 -3,-1 -9,-3 -17,-5 -9,-3 -14,-4 -18,-4 -3,0 -5,1 -7,2 -1,1 -2,2 -2,4z"/>
   <path class="fil0" d="M191 1420c277,-161 530,-346 624,-690 81,-298 531,-173 477,100 -81,410 -337,695 -662,931"/>
   <g>
    <path class="fil1" d="M196 1374c6,-3 12,-4 18,-2 7,3 14,10 21,22 7,12 10,22 9,30 -1,6 -4,11 -10,14 -6,4 -12,4 -19,2 -6,-3 -13,-10 -20,-22 -7,-12 -10,-21 -9,-29 1,-6 4,-11 10,-15zm6 10c-1,1 -2,2 -3,4 0,1 0,4 0,6 1,4 4,9 8,17 5,7 8,12 11,14 2,3 4,4 5,4 2,0 4,0 5,-1 2,-1 3,-2 3,-3 1,-2 1,-4 0,-7 -1,-3 -4,-9 -8,-16 -5,-8 -8,-12 -10,-15 -3,-2 -5,-3 -6,-4 -2,0 -3,0 -5,1zm90 18l-12 7 -28 -45c-2,7 -5,13 -9,19l-7 -11c2,-3 5,-7 6,-12 2,-5 3,-10 2,-15l9 -6 39 63zm-2 -85c6,-4 12,-5 18,-3 7,2 14,9 22,21 7,12 11,21 10,29 -1,6 -4,11 -10,15 -6,4 -12,5 -19,2 -6,-2 -13,-9 -21,-21 -7,-11 -11,-21 -10,-28 1,-7 4,-12 10,-15zm6 9c-1,1 -2,2 -3,4 0,2 0,4 1,7 1,3 4,8 8,16 5,7 9,12 11,14 2,2 5,3 6,3 2,1 3,0 5,-1 1,-1 2,-2 3,-3 0,-2 0,-4 -1,-7 -1,-3 -4,-9 -9,-16 -4,-7 -8,-12 -10,-14 -3,-2 -5,-4 -6,-4 -2,0 -4,0 -5,1zm90 14l-11 8 -29 -44c-2,7 -5,13 -9,19l-7 -10c2,-3 4,-7 6,-13 1,-5 2,-10 0,-14l10 -6 40 60zm-6 -84c6,-4 11,-6 18,-4 7,2 15,9 23,20 8,11 12,21 11,28 0,7 -3,12 -8,16 -6,4 -12,5 -19,3 -7,-2 -14,-8 -22,-19 -9,-11 -12,-21 -12,-29 0,-6 3,-11 9,-15zm7 9c-2,1 -3,2 -3,4 0,2 0,4 1,6 1,4 4,9 10,16 5,7 8,11 11,14 2,2 5,3 6,3 2,0 3,0 5,-1 1,-1 2,-3 2,-4 1,-2 0,-4 -1,-7 -1,-3 -4,-8 -9,-15 -5,-7 -9,-12 -11,-14 -3,-2 -5,-3 -7,-3 -2,0 -3,0 -4,1zm90 9l-11 8 -32 -41c-1,7 -3,13 -7,19l-8 -10c2,-3 4,-7 5,-12 1,-6 1,-11 0,-15l9 -7 44 58zm-12 -84c5,-4 11,-6 17,-5 8,2 16,8 25,18 9,11 13,20 14,28 0,6 -3,11 -8,16 -6,4 -12,6 -19,5 -6,-2 -14,-8 -23,-18 -9,-11 -14,-20 -14,-27 0,-7 2,-12 8,-17zm7 9c-1,1 -2,3 -2,4 0,2 0,4 1,7 2,3 5,8 11,14 6,7 10,11 12,13 3,2 5,3 7,3 2,0 3,-1 4,-2 2,-1 2,-2 3,-4 0,-2 -1,-4 -2,-6 -1,-4 -5,-9 -10,-15 -6,-7 -10,-11 -13,-13 -3,-2 -5,-3 -6,-3 -2,0 -4,1 -5,2zm91 2l-10 9 -36 -38c0,7 -2,13 -5,20l-9 -10c2,-3 3,-7 4,-13 1,-5 0,-10 -2,-14l9 -8 49 54zm-18 -83c5,-5 10,-7 17,-6 7,1 16,6 25,16 10,10 15,19 16,26 1,7 -2,12 -7,17 -5,5 -11,7 -18,6 -6,-1 -15,-6 -25,-16 -9,-10 -14,-19 -15,-26 -1,-7 1,-12 7,-17zm8 8c-2,1 -2,3 -2,4 -1,2 0,4 1,7 2,3 6,8 12,14 6,6 10,10 13,11 3,2 5,3 7,3 2,0 3,-1 4,-2 1,-1 2,-3 2,-4 1,-2 0,-4 -2,-7 -1,-3 -5,-8 -11,-14 -6,-6 -11,-10 -13,-11 -3,-2 -5,-3 -7,-3 -2,0 -3,1 -4,2zm89 -5l-9 10 -39 -36c0,7 -1,14 -4,21l-9 -9c1,-4 2,-8 3,-13 0,-6 -1,-10 -3,-15l8 -8 53 50zm-27 -81c4,-5 10,-8 16,-8 8,0 17,5 27,14 11,8 17,17 19,24 1,6 0,12 -5,17 -4,6 -10,9 -17,8 -7,0 -16,-4 -27,-13 -10,-9 -16,-17 -18,-24 -1,-6 0,-12 5,-18zm9 8c-1,1 -2,2 -2,4 0,2 1,4 3,6 2,3 6,7 13,13 6,5 11,9 14,10 3,1 6,2 7,2 2,-1 3,-2 4,-3 1,-1 2,-3 2,-4 0,-2 -1,-4 -3,-6 -2,-3 -6,-8 -13,-13 -7,-5 -11,-9 -14,-10 -3,-2 -6,-2 -7,-2 -2,1 -3,1 -4,3zm88 -16l-8 11 -42 -30c1,6 0,13 -2,20l-11 -7c2,-4 2,-8 2,-14 0,-5 -2,-10 -4,-14l6 -9 59 43zm-37 -76c4,-6 9,-9 15,-10 8,0 17,3 29,10 12,7 19,15 21,22 3,6 2,12 -2,18 -4,6 -9,9 -16,10 -7,1 -16,-3 -28,-10 -12,-7 -19,-14 -21,-22 -2,-6 -2,-12 2,-18zm10 7c-1,1 -1,3 -1,4 0,2 1,4 3,6 3,3 8,6 15,11 7,4 12,7 15,8 4,1 6,1 8,1 1,-1 2,-2 3,-3 1,-2 1,-3 1,-5 0,-2 -1,-3 -3,-6 -3,-2 -7,-6 -15,-10 -7,-5 -12,-8 -15,-9 -3,-1 -6,-1 -7,0 -2,0 -3,1 -4,3zm86 -27l-6 12 -46 -25c1,7 2,14 0,21l-11 -6c1,-4 1,-8 0,-14 -1,-5 -3,-9 -6,-13l5 -10 64 35zm-45 -72c3,-6 8,-10 14,-11 7,-2 17,1 30,7 12,6 20,12 23,19 3,6 3,12 0,18 -3,6 -8,10 -15,12 -7,1 -17,-1 -29,-7 -12,-6 -20,-13 -24,-20 -2,-5 -2,-11 1,-18zm10 5c0,2 -1,4 0,5 0,2 2,4 4,5 3,3 8,6 15,10 8,3 14,6 17,6 3,1 5,1 7,0 1,0 3,-1 3,-3 1,-1 1,-3 1,-5 -1,-1 -2,-3 -4,-5 -3,-2 -8,-5 -16,-9 -7,-4 -13,-6 -16,-7 -3,0 -6,0 -7,0 -2,1 -3,2 -4,3zm83 -35l-6 13 -48 -20c2,6 3,13 3,20l-12 -4c0,-4 0,-9 -2,-14 -1,-5 -4,-9 -7,-12l4 -11 68 28zm-55 -65c2,-7 6,-11 13,-13 7,-3 17,-2 30,2 13,5 22,10 26,16 3,6 4,12 2,18 -3,7 -7,12 -13,14 -7,2 -17,1 -30,-3 -13,-4 -22,-10 -26,-16 -3,-5 -4,-11 -2,-18zm11 4c0,1 0,3 0,4 1,2 2,3 5,5 3,2 9,4 17,7 8,3 13,4 17,4 3,1 5,0 7,-1 1,0 2,-2 3,-3 0,-2 0,-3 0,-5 -1,-2 -3,-3 -5,-5 -3,-2 -9,-4 -17,-7 -8,-2 -14,-4 -17,-4 -3,0 -6,0 -7,1 -1,1 -2,2 -3,4zm79 -46l-4 13 -50 -16c3,6 4,13 4,20l-12 -4c0,-4 -1,-8 -3,-13 -2,-5 -4,-9 -8,-12l3 -11 70 23zm-46 -77c4,-6 9,-10 15,-11 7,-1 17,2 29,9 12,7 20,14 22,21 3,6 2,12 -1,18 -4,6 -9,9 -16,11 -7,1 -16,-2 -28,-9 -12,-7 -20,-14 -23,-21 -2,-6 -1,-12 2,-18zm10 6c-1,1 -1,3 -1,4 1,2 2,4 4,6 3,2 8,6 15,10 7,4 13,7 16,8 3,0 6,1 7,0 2,-1 3,-2 4,-3 0,-1 1,-3 0,-5 0,-1 -1,-3 -3,-5 -3,-3 -8,-6 -15,-10 -8,-5 -13,-7 -16,-8 -3,-1 -6,-1 -7,0 -2,0 -3,1 -4,3zm97 -22l-10 9 -35 -39c-1,7 -3,13 -6,19l-9 -9c2,-3 4,-8 5,-13 1,-5 0,-10 -1,-14l8 -8 48 55zm10 -90c6,-3 12,-3 18,0 6,4 12,12 18,25 5,13 7,23 5,30 -2,6 -6,11 -13,13 -6,3 -12,3 -18,-1 -7,-3 -12,-11 -18,-24 -5,-12 -7,-22 -5,-30 2,-6 6,-10 13,-13zm4 11c-2,0 -3,1 -3,3 -1,1 -1,3 -1,6 1,4 3,10 6,18 3,7 6,13 8,15 2,3 4,4 5,5 2,0 3,0 5,0 2,-1 3,-2 3,-4 1,-1 1,-3 1,-6 -1,-4 -2,-10 -6,-17 -3,-8 -6,-13 -8,-16 -2,-3 -4,-4 -5,-5 -2,0 -3,0 -5,1zm90 39l-14 2 -6 -52c-5,5 -10,9 -17,13l-1 -13c3,-2 7,-4 10,-8 4,-4 7,-8 8,-13l11 -1 9 72zm53 -71c7,0 13,4 16,9 4,7 5,17 3,30 -2,14 -5,24 -11,29 -4,4 -10,6 -17,5 -7,-1 -12,-4 -16,-10 -3,-6 -4,-16 -3,-30 2,-13 6,-23 11,-28 5,-5 10,-6 17,-5zm-1 11c-2,0 -3,0 -5,1 -1,1 -2,3 -3,5 -2,4 -3,10 -4,18 -1,9 -1,15 -1,18 0,3 1,6 2,7 1,1 3,2 5,2 1,0 3,0 4,-1 2,-1 3,-3 4,-6 1,-3 2,-9 4,-17 1,-9 1,-15 1,-18 -1,-3 -2,-6 -3,-7 -1,-1 -2,-2 -4,-2zm58 77l-13 -5 19 -49c-6,3 -13,4 -21,4l5 -12c4,0 8,-1 13,-2 5,-2 10,-4 13,-8l10 4 -26 68zm81 -41c5,4 9,9 9,16 1,7 -3,17 -10,28 -8,12 -16,19 -23,21 -6,2 -12,1 -18,-3 -6,-4 -9,-9 -9,-16 -1,-7 3,-16 10,-28 8,-11 15,-18 23,-21 6,-1 12,-1 18,3zm-7 10c-1,-1 -3,-1 -4,-1 -2,0 -4,1 -6,3 -3,2 -7,7 -11,14 -5,8 -8,13 -9,16 -1,3 -2,5 -1,7 0,1 1,3 3,4 1,1 3,1 4,1 2,0 4,-1 6,-3 3,-3 7,-8 11,-15 5,-7 8,-12 9,-15 1,-3 1,-6 1,-7 -1,-2 -2,-3 -3,-4zm18 96l-10 -11 40 -34c-7,-1 -13,-3 -19,-7l9 -8c3,2 8,3 13,4 5,1 10,1 14,-1l8 9 -55 48zm90 7c3,7 3,13 0,18 -4,7 -12,13 -24,19 -13,5 -23,7 -30,5 -6,-1 -11,-5 -14,-12 -3,-6 -2,-12 1,-19 3,-6 11,-12 24,-17 12,-6 22,-8 30,-6 6,2 10,6 13,12zm-10 5c-1,-2 -2,-3 -4,-3 -1,-1 -3,-1 -6,-1 -4,1 -10,3 -17,6 -8,4 -13,6 -16,8 -3,3 -4,4 -4,6 -1,2 -1,3 0,5 1,1 2,2 3,3 2,1 4,1 7,0 3,0 9,-2 17,-6 8,-3 13,-6 15,-8 3,-2 5,-4 5,-5 0,-2 0,-4 0,-5zm-40 91l-1 -14 52 -4c-5,-5 -9,-10 -12,-17l13 -1c1,4 4,7 7,11 4,4 8,7 13,8l0 12 -72 5zm68 54c-1,7 -4,12 -10,16 -6,3 -16,4 -30,2 -14,-2 -23,-5 -28,-11 -5,-5 -6,-10 -5,-17 1,-7 4,-13 10,-16 6,-4 16,-4 30,-2 14,2 23,6 28,11 5,5 6,10 5,17zm-11 -1c0,-2 0,-3 -1,-5 -1,-1 -3,-3 -5,-4 -4,-1 -10,-2 -18,-4 -9,-1 -15,-1 -18,-1 -3,0 -5,1 -7,2 -1,1 -2,3 -2,4 0,2 0,4 1,5 1,1 3,3 5,4 4,1 10,3 18,4 9,1 15,1 18,1 3,0 5,-1 7,-2 1,-1 2,-3 2,-4zm-76 58l3 -14 51 13c-3,-6 -5,-13 -6,-20l12 3c1,4 2,8 4,13 2,5 5,9 9,11l-2 11 -71 -17zm58 64c-2,6 -6,11 -12,13 -7,3 -17,2 -31,-2 -13,-4 -22,-9 -26,-15 -3,-5 -4,-11 -2,-18 2,-7 6,-11 13,-14 6,-2 16,-2 29,2 13,4 22,10 27,16 3,5 4,11 2,18zm-11 -4c0,-1 0,-3 0,-4 -1,-2 -3,-3 -5,-5 -3,-2 -9,-4 -17,-7 -8,-2 -14,-3 -17,-4 -4,0 -6,1 -7,2 -2,1 -3,2 -3,3 -1,2 -1,4 0,5 1,2 2,3 5,5 3,2 9,4 17,6 8,3 14,4 17,4 3,0 6,0 7,-1 1,-1 2,-2 3,-4zm-80 47l4 -13 50 17c-3,-6 -4,-13 -4,-20l12 4c0,4 1,8 3,13 1,6 4,10 8,12l-4 11 -69 -24zm52 70c-3,6 -7,10 -13,12 -7,2 -18,1 -30,-5 -13,-5 -21,-11 -25,-17 -3,-6 -3,-12 -1,-19 3,-6 8,-10 14,-12 7,-2 17,-1 30,5 12,5 21,11 24,18 3,5 4,11 1,18zm-11 -5c1,-1 1,-3 0,-5 0,-1 -1,-3 -4,-5 -3,-2 -8,-4 -16,-8 -8,-3 -14,-5 -17,-5 -3,-1 -5,0 -7,0 -1,1 -2,2 -3,4 -1,1 -1,3 0,5 0,1 2,3 4,5 3,2 8,5 16,8 8,3 14,5 17,5 3,1 6,0 7,0 2,-1 3,-2 3,-4zm-83 40l5 -13 48 21c-2,-6 -3,-13 -2,-20l11 5c0,4 1,8 2,13 1,6 4,10 7,13l-5 10 -66 -29zm45 73c-3,6 -8,10 -14,11 -7,2 -17,-1 -30,-7 -12,-6 -20,-13 -23,-20 -2,-6 -2,-12 1,-18 3,-6 8,-10 15,-11 7,-2 16,1 29,7 12,6 20,13 23,20 3,6 2,12 -1,18zm-10 -5c1,-2 1,-3 0,-5 0,-2 -1,-3 -3,-5 -3,-3 -8,-6 -16,-10 -8,-4 -13,-6 -16,-7 -3,0 -6,0 -7,0 -2,1 -3,2 -4,3 0,2 -1,3 0,5 0,2 1,4 3,5 3,3 8,6 16,10 8,4 13,6 16,7 4,0 6,0 7,0 2,-1 3,-2 4,-3zm-87 32l7 -12 46 25c-2,-7 -2,-13 -1,-21l11 7c-1,3 -1,8 0,13 1,5 3,10 6,13l-5 10 -64 -35zm39 77c-4,6 -9,9 -16,10 -7,0 -17,-3 -28,-10 -12,-7 -19,-15 -22,-22 -2,-6 -1,-12 3,-18 3,-6 9,-9 16,-10 6,-1 16,3 28,10 11,7 18,15 21,22 2,6 1,12 -2,18zm-10 -6c1,-2 1,-3 1,-5 0,-2 -2,-4 -4,-6 -2,-2 -7,-6 -14,-11 -7,-4 -13,-7 -16,-8 -3,-1 -5,-1 -7,-1 -1,1 -3,2 -4,3 0,2 -1,3 -1,5 1,2 2,4 4,6 2,2 7,6 14,10 8,5 13,8 16,9 3,1 5,1 7,0 2,0 3,-1 4,-2zm-90 24l8 -11 43 30c-1,-7 0,-14 2,-21l10 7c-1,4 -1,8 -1,14 0,5 2,10 4,14l-6 9 -60 -42zm33 79c-4,6 -9,9 -16,9 -7,0 -17,-4 -28,-12 -11,-8 -18,-16 -20,-23 -1,-6 0,-12 4,-18 4,-5 10,-8 17,-9 7,0 16,4 27,12 11,8 18,16 20,24 1,6 0,12 -4,17zm-9 -7c1,-1 1,-3 1,-4 0,-2 -1,-4 -3,-6 -2,-3 -7,-7 -14,-12 -7,-5 -12,-8 -15,-9 -3,-2 -5,-2 -7,-2 -1,1 -3,2 -4,3 -1,1 -1,3 -1,5 0,1 1,3 3,5 2,3 7,7 14,12 7,5 12,9 15,10 3,1 5,1 7,1 1,0 3,-1 4,-3zm-92 18l9 -11 40 33c0,-7 1,-14 4,-20l9 8c-1,3 -2,8 -2,13 0,5 1,10 4,14l-7 9 -57 -46zm26 82c-5,6 -10,8 -17,8 -7,-1 -16,-6 -27,-15 -10,-9 -16,-17 -17,-25 -1,-6 1,-12 5,-17 5,-5 11,-8 18,-7 7,0 15,5 26,14 10,9 16,17 17,25 1,6 0,12 -5,17zm-9 -7c1,-2 2,-3 2,-5 0,-1 -1,-4 -2,-6 -2,-3 -7,-7 -13,-13 -6,-6 -11,-9 -14,-11 -3,-1 -5,-2 -7,-2 -2,1 -3,1 -4,3 -1,1 -2,2 -2,4 0,2 1,4 3,6 2,3 6,8 12,13 7,6 11,9 14,11 3,1 5,2 7,2 2,0 3,-1 4,-2zm-92 9l10 -10 38 36c0,-7 2,-14 5,-20l9 8c-2,4 -3,8 -3,14 -1,5 0,10 2,14l-8 8 -53 -50z"/>
    <path class="fil1" d="M932 1555c-5,5 -11,7 -17,6 -8,-1 -17,-6 -26,-16 -10,-10 -15,-18 -16,-26 -1,-6 1,-12 6,-17 5,-5 11,-7 18,-6 7,1 16,6 25,16 10,10 15,18 16,26 1,6 -1,12 -6,17zm-8 -8c1,-1 1,-3 2,-5 0,-1 -1,-3 -2,-6 -2,-3 -6,-8 -12,-14 -6,-6 -11,-10 -14,-11 -2,-2 -5,-3 -6,-3 -2,1 -3,1 -5,2 -1,2 -1,3 -2,5 0,1 1,3 2,6 2,3 6,8 12,14 6,6 11,10 13,11 3,2 6,3 7,3 2,0 3,-1 5,-2zm-93 4l10 -10 37 38c0,-7 2,-14 5,-20l9 9c-2,4 -3,8 -4,13 -1,6 0,10 2,15l-8 7 -51 -52zm16 84c-6,5 -11,7 -18,5 -7,-1 -15,-7 -25,-17 -9,-10 -13,-19 -14,-27 0,-6 2,-12 7,-16 6,-5 12,-7 19,-6 6,2 15,7 24,18 9,10 14,19 14,27 0,6 -2,11 -7,16zm-8 -9c1,-1 2,-2 2,-4 1,-1 0,-3 -1,-6 -2,-3 -6,-8 -11,-15 -6,-6 -10,-10 -13,-12 -3,-2 -5,-3 -7,-3 -1,0 -3,1 -4,2 -1,1 -2,3 -2,4 0,2 0,4 1,7 2,3 6,8 11,14 6,7 10,11 13,13 3,1 5,2 7,2 1,0 3,0 4,-2zm-92 -1l10 -9 34 40c1,-7 3,-13 7,-20l8 10c-2,3 -3,8 -4,13 -1,5 -1,10 1,14l-9 8 -47 -56zm11 85c-6,5 -12,6 -18,5 -7,-2 -15,-8 -24,-19 -8,-11 -13,-20 -13,-28 0,-6 3,-11 8,-16 6,-4 12,-6 19,-4 7,2 14,8 23,19 9,10 13,20 13,27 0,7 -3,12 -8,16zm-7 -9c1,-1 2,-2 2,-4 0,-1 0,-3 -1,-6 -2,-3 -5,-9 -10,-15 -6,-7 -10,-11 -12,-13 -3,-2 -5,-3 -7,-3 -2,0 -3,0 -4,1 -2,1 -2,3 -3,4 0,2 0,4 1,7 2,3 5,8 11,15 5,7 9,11 12,13 2,2 4,3 6,3 2,0 3,-1 5,-2zm-93 -5l11 -9 32 42c1,-7 4,-13 8,-19l8 10c-2,3 -4,7 -6,12 -1,5 -1,10 1,15l-9 7 -45 -58zm8 85c-5,4 -11,5 -18,4 -7,-2 -15,-9 -23,-20 -8,-11 -12,-21 -12,-28 1,-7 3,-12 9,-16 6,-4 12,-5 19,-3 6,1 14,8 22,19 8,11 12,20 12,28 0,6 -3,12 -9,16zm-7 -9c2,-1 3,-3 3,-4 0,-2 0,-4 -1,-7 -1,-3 -5,-8 -10,-15 -5,-7 -9,-12 -11,-14 -3,-2 -5,-3 -7,-3 -1,0 -3,0 -4,1 -1,1 -2,3 -3,4 0,2 0,4 1,7 2,3 5,8 10,15 5,7 9,12 11,14 3,2 5,3 7,3 2,0 3,0 4,-1z"/>
   </g>
   <path class="fil0" d="M65 1196c278,-129 391,-252 446,-409 56,-156 80,-320 336,-471"/>
   <path class="fil1" d="M74 1151c7,-3 13,-3 18,0 7,3 13,11 19,23 6,13 8,23 7,30 -2,6 -6,11 -12,14 -7,3 -13,3 -19,0 -6,-3 -12,-11 -18,-24 -6,-12 -8,-22 -7,-29 2,-7 6,-11 12,-14zm5 10c-1,1 -3,2 -3,4 -1,1 -1,3 -1,6 1,4 3,9 7,17 4,8 6,13 9,16 2,2 4,4 5,4 2,0 3,0 5,0 1,-1 2,-2 3,-4 1,-1 1,-3 0,-6 0,-4 -2,-10 -6,-17 -4,-8 -7,-13 -9,-16 -2,-2 -4,-4 -5,-4 -2,-1 -3,0 -5,0zm87 25l-12 6 -25 -46c-2,7 -6,13 -11,18l-5 -11c2,-3 5,-7 7,-12 2,-5 3,-10 2,-14l10 -6 34 65zm3 -85c6,-3 12,-4 18,-1 7,3 14,10 21,22 7,12 10,22 9,29 -1,7 -5,11 -11,15 -6,3 -12,4 -19,1 -6,-2 -13,-10 -20,-22 -7,-12 -10,-21 -9,-29 1,-6 5,-11 11,-15zm6 11c-2,0 -3,2 -3,3 -1,2 -1,4 0,7 1,3 4,9 8,16 4,8 7,12 10,15 2,2 4,3 6,4 1,0 3,0 4,-1 2,-1 3,-2 3,-4 1,-1 1,-3 0,-6 -1,-4 -4,-9 -8,-17 -4,-7 -7,-12 -10,-14 -2,-3 -4,-4 -6,-4 -1,-1 -3,0 -4,1zm89 18l-12 7 -27 -45c-2,7 -5,13 -10,19l-7 -11c3,-3 5,-7 7,-12 2,-5 2,-10 1,-15l10 -5 38 62zm-6 -84c6,-4 12,-6 18,-4 8,2 15,9 23,20 8,11 12,21 12,29 -1,6 -4,11 -9,15 -6,4 -12,5 -19,3 -7,-1 -14,-8 -22,-19 -8,-12 -12,-21 -12,-29 1,-6 4,-11 9,-15zm7 9c-1,1 -2,2 -3,4 0,2 0,4 1,6 2,4 5,9 10,16 5,7 9,12 11,14 3,2 5,3 6,3 2,0 4,0 5,-1 1,-1 2,-3 3,-4 0,-2 0,-4 -1,-7 -2,-3 -5,-8 -10,-15 -5,-7 -8,-12 -11,-14 -3,-2 -5,-3 -6,-3 -2,0 -4,0 -5,1zm91 9l-11 9 -33 -42c-1,7 -3,13 -7,19l-8 -10c2,-3 4,-7 5,-12 1,-5 1,-10 0,-15l9 -7 45 58zm-17 -83c5,-4 11,-6 18,-5 7,1 16,6 25,17 9,10 14,18 15,26 0,6 -2,12 -7,17 -5,5 -11,6 -18,5 -7,-1 -15,-6 -25,-17 -9,-10 -14,-18 -15,-26 0,-6 2,-12 7,-17zm8 9c-1,1 -2,2 -2,4 0,2 0,4 2,6 2,4 5,8 11,15 6,6 10,10 13,12 3,1 5,2 7,2 1,0 3,-1 4,-2 1,-1 2,-2 2,-4 0,-2 0,-4 -2,-6 -1,-3 -5,-8 -11,-14 -6,-7 -10,-11 -13,-13 -3,-1 -5,-2 -6,-2 -2,0 -4,1 -5,2zm90 -4l-10 10 -39 -35c1,7 -1,14 -4,20l-9 -8c1,-4 2,-8 3,-14 0,-5 -1,-10 -3,-14l8 -8 54 49zm-31 -79c5,-5 10,-8 16,-8 8,0 17,4 28,12 11,8 18,16 20,24 1,6 0,12 -4,17 -5,6 -10,9 -17,9 -7,0 -16,-4 -27,-13 -11,-8 -18,-16 -20,-23 -1,-6 0,-12 4,-18zm10 7c-1,2 -2,3 -2,5 0,1 1,3 3,6 2,3 7,7 14,12 7,5 11,8 15,9 3,2 5,2 7,2 1,-1 2,-1 3,-3 1,-1 2,-3 2,-4 0,-2 -1,-4 -3,-6 -2,-3 -7,-7 -14,-12 -6,-6 -11,-9 -14,-10 -3,-1 -6,-2 -7,-1 -2,0 -3,1 -4,2zm86 -20l-7 12 -44 -28c1,7 1,14 -1,21l-11 -6c1,-4 1,-9 1,-14 -1,-5 -3,-10 -5,-14l6 -9 61 38zm-46 -70c3,-6 8,-10 14,-12 7,-1 17,1 30,6 12,6 20,12 24,19 3,6 3,12 0,18 -3,7 -8,11 -15,12 -7,2 -16,0 -29,-6 -13,-6 -21,-12 -24,-19 -3,-5 -3,-11 0,-18zm11 5c-1,2 -1,3 -1,5 1,1 2,3 4,5 3,2 8,5 16,9 8,3 13,5 17,6 3,1 5,1 7,0 1,-1 2,-2 3,-4 1,-1 1,-3 0,-4 0,-2 -1,-4 -4,-5 -2,-3 -8,-6 -15,-9 -8,-4 -14,-6 -17,-6 -3,-1 -6,-1 -7,0 -2,0 -3,2 -3,3zm81 -38l-5 13 -49 -18c3,6 4,13 4,20l-12 -4c0,-4 -1,-8 -2,-14 -2,-5 -5,-9 -8,-12l4 -10 68 25zm-55 -65c2,-7 6,-11 12,-13 7,-3 17,-2 30,3 14,4 22,9 26,16 4,5 4,11 2,18 -2,6 -6,11 -13,13 -6,3 -16,2 -30,-3 -13,-4 -21,-9 -25,-16 -4,-5 -5,-11 -2,-18zm11 4c-1,1 -1,3 0,5 0,1 2,3 4,4 3,2 9,5 17,7 8,3 14,5 17,5 4,0 6,0 7,-1 2,-1 3,-2 3,-4 1,-2 1,-3 0,-5 0,-1 -2,-3 -4,-4 -4,-2 -9,-5 -17,-7 -8,-3 -14,-5 -17,-5 -4,0 -6,0 -7,1 -2,1 -3,2 -3,4zm80 -46l-5 14 -50 -17c3,6 5,13 5,20l-12 -4c0,-3 -1,-8 -3,-13 -2,-5 -5,-9 -8,-12l3 -11 70 23zm-53 -68c3,-7 7,-11 13,-13 8,-2 18,0 31,5 12,5 21,11 25,17 3,6 3,12 0,18 -2,7 -7,11 -13,13 -7,2 -17,1 -30,-5 -13,-5 -21,-10 -25,-17 -3,-6 -3,-12 -1,-18zm11 4c-1,2 -1,3 0,5 0,2 2,3 4,5 3,2 9,5 17,8 8,3 13,5 16,5 4,1 6,0 8,0 1,-1 2,-2 3,-4 0,-1 0,-3 0,-5 -1,-1 -2,-3 -4,-5 -3,-2 -9,-4 -17,-8 -8,-3 -13,-5 -17,-5 -3,0 -5,0 -7,1 -1,0 -2,2 -3,3zm86 -39l-7 12 -46 -24c2,7 2,14 1,21l-11 -6c0,-4 0,-8 -1,-13 -1,-6 -3,-10 -6,-13l5 -10 65 33zm-40 -77c4,-6 9,-10 16,-10 7,-1 17,2 28,9 12,8 19,15 22,22 2,6 1,12 -3,18 -4,6 -9,9 -16,10 -7,1 -16,-2 -28,-10 -11,-7 -19,-14 -21,-22 -2,-6 -1,-12 2,-17zm10 6c-1,1 -1,3 -1,4 0,2 1,4 3,6 3,3 8,6 15,11 7,4 13,7 16,8 3,1 5,1 7,1 1,-1 3,-2 3,-3 1,-1 2,-3 1,-5 0,-1 -1,-3 -3,-5 -2,-3 -7,-7 -14,-11 -8,-5 -13,-7 -16,-8 -3,-1 -6,-2 -7,-1 -2,0 -3,1 -4,3zm93 -22l-9 10 -40 -34c0,7 -1,14 -4,21l-9 -8c1,-4 2,-8 2,-14 0,-5 -1,-10 -3,-14l7 -8 56 47zm-20 -86c5,-4 10,-6 17,-6 7,1 16,7 25,17 10,10 15,19 16,26 0,7 -2,12 -7,17 -5,5 -11,7 -18,6 -7,-1 -15,-6 -25,-17 -9,-9 -14,-18 -15,-26 -1,-6 1,-12 7,-17zm8 9c-2,1 -2,2 -3,4 0,2 1,4 2,6 2,4 6,8 12,14 6,7 10,11 13,12 3,2 5,3 7,3 1,0 3,-1 4,-2 1,-1 2,-3 2,-5 0,-1 0,-3 -2,-6 -2,-3 -5,-8 -11,-14 -6,-6 -11,-10 -13,-12 -3,-1 -5,-2 -7,-2 -2,0 -3,1 -4,2zm93 -1l-10 9 -34 -40c-1,6 -3,13 -7,19l-8 -9c2,-4 3,-8 4,-13 1,-6 1,-10 -1,-15l9 -7 47 56zm-5 -87c5,-4 11,-5 17,-3 8,2 15,9 23,21 8,11 12,20 11,28 0,6 -3,12 -9,16 -6,4 -12,5 -19,3 -7,-2 -14,-9 -22,-21 -8,-11 -11,-20 -11,-28 1,-6 4,-12 10,-16zm6 10c-1,1 -2,2 -3,4 0,1 0,4 1,6 1,4 4,9 9,16 5,7 9,12 11,14 3,2 5,3 7,3 1,0 3,0 4,-1 2,-1 2,-2 3,-4 0,-1 0,-4 -1,-6 -1,-4 -4,-9 -9,-16 -5,-7 -9,-12 -11,-14 -3,-2 -5,-3 -6,-3 -2,0 -4,0 -5,1zm93 14l-12 7 -28 -45c-2,7 -5,13 -9,18l-7 -10c2,-3 5,-7 6,-12 2,-5 3,-10 2,-15l10 -6 38 63z"/>
   <polygon class="fil1" points="2090,103 2090,1946 2067,1946 2067,103 "/>
   <path class="fil0" d="M378 1614c373,-189 594,-487 689,-879"/>
   <path class="fil0" d="M191 1420c277,-161 530,-346 624,-690 81,-298 531,-173 477,100 -81,410 -337,695 -662,931"/>
   <polygon class="fil1" points="2403,1465 2403,1192 2433,1192 2433,1465 "/>
   <path id="1" class="fil1" d="M2594 1465l0 -133c0,-10 -1,-19 -2,-25 -1,-7 -3,-13 -6,-17 -3,-4 -6,-7 -11,-9 -4,-2 -10,-3 -17,-3 -6,0 -12,2 -18,5 -5,3 -10,7 -14,12 -4,6 -7,13 -9,21 -2,8 -3,17 -3,27l0 122 -29 0 0 -165c0,0 0,-4 0,-14 0,-4 0,-9 0,-13 0,-5 0,-8 0,-11 0,-4 0,-6 0,-6l26 0c1,0 1,2 1,5 0,3 0,6 0,9 0,4 0,8 0,12 1,3 1,7 1,9l0 0c3,-6 6,-11 9,-16 3,-5 7,-9 12,-13 4,-3 9,-6 15,-8 5,-2 12,-2 19,-2 10,0 18,1 25,4 7,3 12,7 17,13 4,6 7,14 9,23 2,9 3,20 3,33l0 140 -28 0z"/>
   <path id="2" class="fil1" d="M2794 1407c0,10 -1,18 -4,26 -3,8 -8,14 -14,19 -6,6 -13,10 -22,12 -9,3 -18,5 -30,5 -9,0 -18,-1 -26,-3 -9,-2 -15,-5 -22,-9 -6,-4 -11,-10 -15,-17 -4,-6 -7,-15 -9,-24l26 -6c2,11 7,19 15,24 7,5 18,8 31,8 7,0 12,0 17,-1 6,-2 10,-3 14,-6 3,-2 6,-6 8,-10 3,-4 4,-9 4,-15 0,-7 -2,-12 -4,-16 -3,-4 -6,-8 -10,-10 -5,-3 -10,-5 -16,-7l-21 -7c-6,-2 -13,-5 -20,-7 -7,-3 -13,-7 -18,-11 -6,-4 -10,-10 -14,-16 -3,-7 -5,-15 -5,-25 0,-19 6,-34 17,-44 11,-10 27,-15 49,-15 19,0 34,4 45,12 11,9 19,22 22,39l-26 4c-1,-5 -3,-10 -6,-13 -2,-4 -5,-7 -9,-9 -4,-2 -8,-4 -12,-5 -5,-1 -9,-2 -14,-2 -13,0 -23,3 -29,8 -6,4 -9,12 -9,21 0,6 1,11 3,14 3,4 6,7 10,10 4,2 9,4 15,6l19 6c0,0 4,2 13,5 5,1 10,3 14,5 5,3 9,5 13,8 4,3 8,7 11,11 3,5 5,9 7,15 1,6 2,12 2,20z"/>
   <path id="3" class="fil1" d="M2894 1463c-4,2 -9,3 -13,4 -5,0 -10,1 -16,1 -23,0 -34,-16 -34,-48l0 -139 -20 0 0 -25 21 0 8 -47 19 0 0 47 32 0 0 25 -32 0 0 132c0,10 2,17 4,21 3,4 8,6 14,6 3,0 6,0 8,-1 3,0 6,-1 9,-2l0 26z"/>
   <path id="4" class="fil1" d="M2918 1211l0 -34 28 0 0 34 -28 0zm0 254l0 -209 28 0 0 209 -28 0z"/>
   <path id="5" class="fil1" d="M3056 1463c-4,2 -8,3 -13,4 -4,0 -10,1 -16,1 -22,0 -34,-16 -34,-48l0 -139 -20 0 0 -25 21 0 9 -47 19 0 0 47 31 0 0 25 -31 0 0 132c0,10 1,17 4,21 3,4 7,6 14,6 3,0 5,0 8,-1 2,0 5,-1 8,-2l0 26z"/>
   <path id="6" class="fil1" d="M3108 1256l0 132c0,10 1,19 2,26 1,6 3,12 6,16 3,4 6,7 11,9 4,2 10,3 17,3 6,0 12,-2 18,-5 5,-3 10,-7 14,-12 4,-6 7,-13 9,-21 2,-8 3,-17 3,-27l0 -121 29 0 0 164c0,0 0,5 0,14 0,5 0,9 0,14 0,4 0,8 0,11 0,3 0,5 0,6l-26 0c-1,-1 -1,-3 -1,-6 0,-2 0,-6 0,-9 0,-4 0,-8 0,-12 0,-3 -1,-7 -1,-9l0 0c-3,6 -6,11 -9,16 -3,5 -7,9 -12,13 -4,3 -9,6 -14,8 -6,2 -13,3 -20,3 -10,0 -18,-2 -25,-5 -6,-2 -12,-7 -17,-13 -4,-6 -7,-13 -9,-23 -2,-9 -3,-20 -3,-33l0 -139 28 0z"/>
   <path id="7" class="fil1" d="M3327 1463c-4,2 -9,3 -13,4 -5,0 -10,1 -16,1 -22,0 -34,-16 -34,-48l0 -139 -20 0 0 -25 21 0 9 -47 19 0 0 47 31 0 0 25 -31 0 0 132c0,10 1,17 4,21 2,4 7,6 14,6 2,0 5,0 8,-1 2,0 5,-1 8,-2l0 26z"/>
   <path id="8" class="fil1" d="M3497 1360c0,37 -7,64 -20,82 -13,18 -33,27 -58,27 -12,0 -22,-3 -32,-7 -9,-4 -17,-11 -24,-20 -6,-9 -11,-20 -14,-34 -4,-14 -6,-30 -6,-48 0,-72 26,-108 77,-108 13,0 25,2 35,6 9,5 17,12 24,21 6,9 10,20 13,33 3,14 5,30 5,48zm-30 0c0,-16 -1,-30 -3,-40 -2,-11 -5,-19 -9,-26 -4,-6 -9,-10 -15,-13 -6,-2 -12,-4 -19,-4 -8,0 -14,2 -20,4 -6,3 -11,7 -15,14 -4,6 -7,15 -9,25 -2,11 -4,24 -4,40 0,16 2,30 4,40 2,11 5,19 9,26 5,6 9,10 15,13 5,3 11,4 18,4 7,0 14,-1 20,-4 6,-2 11,-7 15,-13 4,-7 7,-15 9,-26 2,-10 4,-24 4,-40z"/>
   <path id="9" class="fil1" d="M3772 1465l-120 -233c0,0 1,6 1,19 0,5 1,11 1,17 0,6 0,11 0,15l0 182 -27 0 0 -273 35 0 121 234c0,-6 -1,-12 -1,-19 0,-5 -1,-11 -1,-17 0,-7 0,-13 0,-19l0 -179 27 0 0 273 -36 0z"/>
   <path id="10" class="fil1" d="M3901 1469c-18,0 -31,-6 -39,-17 -9,-11 -13,-26 -13,-46 0,-14 2,-25 6,-34 4,-9 10,-16 17,-21 7,-5 15,-8 24,-10 8,-2 17,-3 27,-4l38 0 0 -12c0,-8 -1,-15 -2,-22 -2,-6 -4,-10 -7,-14 -3,-4 -7,-7 -11,-8 -5,-2 -10,-3 -17,-3 -5,0 -10,1 -14,2 -5,0 -9,2 -12,5 -3,2 -6,6 -8,10 -2,4 -3,10 -4,16l-29 -3c1,-8 3,-16 6,-23 2,-7 7,-13 12,-18 5,-5 12,-9 20,-11 9,-3 18,-4 30,-4 22,0 38,6 49,18 11,12 16,29 16,52l0 90c0,10 1,18 3,23 3,6 7,8 13,8 2,0 3,0 5,0 1,0 3,-1 4,-1l0 22c-3,1 -7,1 -10,2 -4,0 -8,1 -12,1 -5,0 -10,-1 -14,-3 -3,-2 -7,-4 -9,-8 -2,-3 -4,-8 -6,-13 -1,-5 -2,-11 -2,-18l-1 0c-3,6 -6,12 -10,18 -4,5 -8,10 -13,14 -4,3 -10,6 -16,8 -6,3 -14,4 -21,4zm6 -27c9,0 17,-2 24,-6 7,-4 12,-9 17,-15 4,-7 8,-13 10,-21 2,-7 3,-15 3,-22l0 -17 -31 1c-7,0 -14,1 -20,2 -6,1 -12,3 -17,6 -4,4 -8,8 -11,14 -3,6 -4,13 -4,23 0,11 2,20 8,26 5,6 12,9 21,9z"/>
   <path id="11" class="fil1" d="M4059 1359c0,12 1,23 2,33 2,10 4,19 8,26 3,8 7,13 13,17 5,4 12,6 20,6 11,0 19,-3 26,-10 6,-7 11,-17 12,-31l29 3c-1,8 -3,16 -6,24 -3,8 -8,15 -13,22 -5,6 -12,10 -20,14 -8,4 -17,6 -27,6 -13,0 -25,-3 -34,-9 -10,-5 -17,-13 -23,-23 -6,-9 -10,-21 -13,-34 -2,-13 -4,-28 -4,-43 0,-14 1,-27 3,-37 2,-11 5,-20 8,-29 4,-8 8,-14 12,-20 5,-5 10,-10 15,-13 6,-3 12,-6 18,-7 6,-2 12,-2 18,-2 9,0 18,1 25,4 8,4 14,8 20,14 5,5 10,12 13,20 3,7 6,15 7,24l-29 3c-2,-12 -5,-21 -11,-28 -6,-7 -15,-10 -26,-10 -8,0 -15,2 -20,5 -6,3 -10,8 -13,15 -4,6 -6,15 -8,25 -1,10 -2,22 -2,35z"/>
   <path id="12" class="fil1" d="M4200 1211l0 -34 28 0 0 34 -28 0zm0 254l0 -209 28 0 0 209 -28 0z"/>
   <path id="13" class="fil1" d="M4417 1360c0,37 -6,64 -20,82 -13,18 -32,27 -57,27 -12,0 -23,-3 -32,-7 -10,-4 -18,-11 -24,-20 -7,-9 -12,-20 -15,-34 -3,-14 -5,-30 -5,-48 0,-72 25,-108 77,-108 13,0 24,2 34,6 10,5 18,12 24,21 6,9 11,20 14,33 3,14 4,30 4,48zm-30 0c0,-16 -1,-30 -3,-40 -2,-11 -5,-19 -9,-26 -4,-6 -9,-10 -15,-13 -5,-2 -12,-4 -19,-4 -7,0 -14,2 -20,4 -5,3 -10,7 -15,14 -4,6 -7,15 -9,25 -2,11 -3,24 -3,40 0,16 1,30 3,40 3,11 6,19 10,26 4,6 9,10 14,13 6,3 12,4 18,4 8,0 14,-1 20,-4 6,-2 11,-7 15,-13 4,-7 8,-15 10,-26 2,-10 3,-24 3,-40z"/>
   <path id="14" class="fil1" d="M4562 1465l0 -133c0,-10 -1,-19 -2,-25 -1,-7 -3,-13 -6,-17 -3,-4 -7,-7 -11,-9 -5,-2 -10,-3 -17,-3 -7,0 -13,2 -18,5 -6,3 -10,7 -14,12 -4,6 -7,13 -9,21 -2,8 -3,17 -3,27l0 122 -29 0 0 -165c0,0 0,-4 0,-14 0,-4 0,-9 0,-13 0,-5 0,-8 0,-11 -1,-4 -1,-6 -1,-6l27 0c0,0 0,2 0,5 0,3 1,6 1,9 0,4 0,8 0,12 0,3 0,7 0,9l1 0c3,-6 6,-11 9,-16 3,-5 7,-9 11,-13 5,-3 10,-6 15,-8 6,-2 12,-2 20,-2 9,0 18,1 24,4 7,3 13,7 17,13 5,6 8,14 10,23 2,9 3,20 3,33l0 140 -28 0z"/>
   <path id="15" class="fil1" d="M4677 1469c-17,0 -30,-6 -39,-17 -9,-11 -13,-26 -13,-46 0,-14 2,-25 7,-34 4,-9 9,-16 16,-21 7,-5 15,-8 24,-10 9,-2 18,-3 27,-4l39 0 0 -12c0,-8 -1,-15 -3,-22 -1,-6 -3,-10 -7,-14 -3,-4 -6,-7 -11,-8 -5,-2 -10,-3 -16,-3 -6,0 -11,1 -15,2 -4,0 -8,2 -12,5 -3,2 -5,6 -7,10 -2,4 -4,10 -4,16l-30 -3c1,-8 3,-16 6,-23 3,-7 7,-13 12,-18 6,-5 13,-9 21,-11 8,-3 18,-4 30,-4 21,0 37,6 48,18 11,12 16,29 16,52l0 90c0,10 2,18 4,23 2,6 6,8 12,8 2,0 4,0 5,0 2,0 3,-1 5,-1l0 22c-4,1 -7,1 -11,2 -4,0 -7,1 -11,1 -6,0 -10,-1 -14,-3 -4,-2 -7,-4 -10,-8 -2,-3 -4,-8 -5,-13 -2,-5 -2,-11 -3,-18l0 0c-4,6 -7,12 -11,18 -3,5 -8,10 -12,14 -5,3 -11,6 -17,8 -6,3 -13,4 -21,4zm6 -27c10,0 17,-2 24,-6 7,-4 13,-9 17,-15 5,-7 8,-13 10,-21 2,-7 4,-15 4,-22l0 -17 -32 1c-7,0 -13,1 -20,2 -6,1 -11,3 -16,6 -5,4 -9,8 -11,14 -3,6 -5,13 -5,23 0,11 3,20 8,26 5,6 12,9 21,9z"/>
   <polygon id="16" class="fil1" points="4814,1465 4814,1177 4842,1177 4842,1465 "/>
   <path id="17" class="fil1" d="M5085 1431c-6,13 -13,23 -21,29 -9,6 -20,9 -33,9 -21,0 -37,-9 -48,-27 -10,-18 -15,-45 -15,-81 0,-73 21,-109 63,-109 13,0 24,2 33,8 8,6 15,15 21,28l0 0c0,-1 0,-3 0,-6l0 -9c0,-3 0,-6 0,-9l0 -5 0 -82 28 0 0 244c0,6 0,10 0,15 0,5 0,9 0,13 0,4 0,7 1,10 0,3 0,4 0,6l-27 0c0,-2 -1,-3 -1,-6 0,-2 0,-5 0,-8 0,-3 -1,-6 -1,-10 0,-3 0,-7 0,-10l0 0zm-87 -71c0,14 1,27 2,37 2,10 4,19 7,25 4,7 8,12 13,15 5,3 11,5 19,5 7,0 14,-2 19,-5 6,-3 11,-8 15,-14 4,-7 6,-16 9,-26 2,-11 3,-24 3,-39 0,-15 -1,-28 -3,-38 -3,-10 -5,-19 -9,-25 -4,-6 -9,-11 -15,-14 -5,-2 -12,-4 -19,-4 -7,0 -13,2 -18,5 -5,3 -10,8 -13,14 -3,7 -6,15 -7,26 -2,10 -3,23 -3,38z"/>
   <path id="18" class="fil1" d="M5177 1368c0,11 1,21 4,30 2,9 5,17 9,24 4,6 9,11 15,15 6,4 13,5 21,5 13,0 23,-3 30,-9 8,-6 13,-13 15,-23l25 9c-1,6 -4,12 -7,18 -3,5 -8,11 -13,15 -6,5 -12,9 -20,12 -8,3 -18,5 -30,5 -25,0 -44,-10 -57,-28 -14,-18 -20,-46 -20,-82 0,-20 2,-36 6,-50 4,-14 9,-25 16,-33 7,-9 15,-15 25,-19 9,-4 19,-5 29,-5 15,0 27,2 36,8 19,11 31,31 36,59 3,14 4,28 4,44l0 5 -124 0zm95 -27c0,-23 -4,-40 -13,-49 -8,-10 -20,-15 -34,-15 -10,0 -20,5 -29,13 -12,10 -18,27 -19,51l95 0z"/>
   <polygon id="19" class="fil1" points="2487,1612 2487,1854 2456,1854 2456,1612 2380,1612 2380,1581 2563,1581 2563,1612 "/>
   <path id="20" class="fil1" d="M2577 1757c0,11 2,21 4,30 2,9 5,17 9,24 4,6 9,12 15,15 6,4 13,6 22,6 12,0 22,-3 29,-9 8,-6 13,-14 15,-23l26 8c-2,6 -5,12 -8,18 -3,6 -8,11 -13,16 -5,4 -12,8 -20,11 -8,3 -18,5 -29,5 -26,0 -45,-9 -58,-28 -14,-18 -20,-45 -20,-82 0,-19 2,-36 6,-50 4,-13 9,-24 16,-33 7,-8 15,-15 25,-18 9,-4 19,-6 29,-6 15,0 27,3 37,8 18,11 30,31 35,59 3,14 4,29 4,44l0 5 -124 0zm95 -27c0,-23 -4,-40 -13,-49 -8,-10 -20,-14 -34,-14 -10,0 -20,4 -29,12 -12,10 -18,27 -19,51l95 0z"/>
   <path id="21" class="fil1" d="M2760 1749c0,12 0,23 2,33 1,10 3,18 7,26 3,7 7,13 13,17 6,4 12,6 21,6 10,0 18,-4 25,-10 7,-7 11,-17 12,-31l29 2c-1,8 -3,17 -6,25 -3,8 -7,15 -13,21 -5,6 -12,11 -20,14 -7,4 -16,6 -27,6 -13,0 -24,-3 -34,-8 -9,-6 -17,-14 -23,-23 -6,-10 -10,-21 -13,-35 -2,-13 -4,-27 -4,-43 0,-14 1,-26 3,-37 2,-11 5,-20 8,-28 4,-8 8,-15 12,-21 5,-5 10,-9 16,-13 5,-3 11,-5 17,-7 6,-1 12,-2 18,-2 10,0 18,1 26,5 7,3 14,7 19,13 5,6 10,12 13,20 3,7 6,16 7,24l-29 3c-1,-11 -5,-21 -11,-28 -6,-6 -15,-10 -26,-10 -8,0 -15,2 -20,5 -6,3 -10,8 -13,15 -4,7 -6,15 -7,25 -2,10 -2,22 -2,36z"/>
   <path id="22" class="fil1" d="M3009 1854l0 -133c0,-10 0,-18 -2,-25 -1,-7 -3,-12 -6,-17 -3,-4 -6,-7 -11,-9 -4,-1 -10,-2 -16,-2 -7,0 -13,1 -19,4 -5,3 -10,7 -14,13 -4,5 -7,12 -9,20 -2,8 -3,17 -3,28l0 121 -28 0 0 -165c0,0 0,-4 0,-13 0,-5 0,-10 -1,-14 0,-4 0,-8 0,-11 0,-3 0,-5 0,-6l27 0c0,0 0,2 0,5 0,3 0,6 0,10 0,3 1,7 1,11 0,4 0,7 0,10l0 0c3,-7 6,-12 9,-17 4,-5 7,-9 12,-12 4,-4 9,-6 15,-8 5,-2 12,-3 19,-3 10,0 18,1 25,4 7,3 12,7 17,13 4,6 7,14 10,23 2,10 3,21 3,34l0 139 -29 0z"/>
   <path id="23" class="fil1" d="M3226 1749c0,37 -7,64 -20,82 -13,18 -33,27 -58,27 -12,0 -22,-2 -32,-7 -9,-4 -17,-11 -24,-20 -6,-9 -11,-20 -14,-34 -4,-13 -6,-29 -6,-48 0,-72 26,-108 77,-108 14,0 25,2 35,7 10,4 18,11 24,20 6,9 10,20 13,34 3,13 5,29 5,47zm-30 0c0,-16 -1,-29 -3,-40 -2,-11 -5,-19 -9,-25 -4,-7 -9,-11 -15,-14 -6,-2 -12,-3 -19,-3 -7,0 -14,1 -20,4 -6,2 -11,7 -15,13 -4,7 -7,15 -9,26 -2,10 -3,23 -3,39 0,16 1,30 3,41 2,10 6,19 10,25 4,6 9,11 14,13 6,3 12,4 18,4 8,0 14,-1 20,-4 6,-2 11,-7 15,-13 4,-6 7,-15 9,-25 3,-11 4,-25 4,-41z"/>
   <polygon id="24" class="fil1" points="3261,1854 3261,1567 3290,1567 3290,1854 "/>
   <path id="25" class="fil1" d="M3478 1749c0,37 -6,64 -19,82 -14,18 -33,27 -58,27 -12,0 -23,-2 -32,-7 -9,-4 -17,-11 -24,-20 -6,-9 -11,-20 -15,-34 -3,-13 -5,-29 -5,-48 0,-72 26,-108 77,-108 13,0 25,2 35,7 9,4 17,11 23,20 7,9 11,20 14,34 3,13 4,29 4,47zm-30 0c0,-16 -1,-29 -3,-40 -2,-11 -5,-19 -9,-25 -4,-7 -8,-11 -14,-14 -6,-2 -12,-3 -19,-3 -8,0 -14,1 -20,4 -6,2 -11,7 -15,13 -4,7 -7,15 -10,26 -2,10 -3,23 -3,39 0,16 2,30 4,41 2,10 5,19 9,25 4,6 9,11 15,13 5,3 11,4 18,4 7,0 14,-1 20,-4 6,-2 11,-7 15,-13 4,-6 7,-15 9,-25 2,-11 3,-25 3,-41z"/>
   <path id="26" class="fil1" d="M3579 1936c-10,0 -19,-1 -26,-3 -8,-3 -14,-6 -20,-11 -5,-4 -10,-10 -13,-16 -3,-7 -6,-14 -7,-21l29 -5c1,9 6,17 12,22 6,5 15,8 26,8 6,0 12,-1 17,-4 5,-2 10,-5 14,-10 3,-5 6,-11 8,-19 2,-8 3,-17 3,-28l0 -34 0 0c-2,5 -5,10 -8,15 -3,5 -7,9 -11,13 -5,4 -10,7 -16,9 -6,2 -13,4 -20,4 -11,0 -20,-3 -28,-7 -8,-5 -14,-11 -19,-20 -5,-9 -9,-20 -11,-33 -2,-14 -3,-29 -3,-46 0,-17 1,-32 3,-45 2,-14 6,-25 11,-34 5,-10 12,-17 20,-22 8,-5 18,-7 30,-7 12,0 23,3 31,10 9,7 16,16 21,29l1 0c0,-4 0,-7 0,-11 0,-4 0,-8 0,-12 1,-3 1,-6 1,-9 0,-2 0,-4 1,-4l27 0c0,1 0,3 -1,6 0,2 0,6 0,10 0,4 0,8 0,12 0,5 0,10 0,15l0 160c0,29 -6,51 -18,66 -12,15 -30,22 -54,22zm43 -187c0,-14 -1,-27 -4,-37 -2,-10 -6,-19 -10,-25 -4,-7 -9,-12 -14,-15 -6,-3 -11,-5 -17,-5 -7,0 -14,2 -19,5 -5,3 -9,8 -13,15 -3,6 -6,15 -7,25 -2,11 -3,23 -3,37 0,15 1,28 3,38 1,11 4,19 7,25 3,7 8,11 13,14 5,2 11,4 18,4 6,0 12,-2 17,-5 6,-3 11,-7 15,-14 4,-6 8,-15 10,-25 3,-10 4,-22 4,-37z"/>
   <path id="27" class="fil1" d="M3694 1600l0 -33 29 0 0 33 -29 0zm0 254l0 -209 29 0 0 209 -29 0z"/>
   <path id="28" class="fil1" d="M3810 1858c-17,0 -30,-6 -38,-17 -9,-11 -13,-26 -13,-45 0,-14 2,-26 6,-35 4,-8 10,-15 17,-20 7,-5 15,-9 23,-11 9,-2 18,-3 27,-3l39 -1 0 -11c0,-9 -1,-16 -2,-22 -2,-6 -4,-11 -7,-15 -3,-4 -7,-6 -11,-8 -5,-2 -10,-3 -17,-3 -5,0 -10,1 -15,2 -4,1 -8,3 -11,5 -3,3 -6,6 -8,10 -2,5 -3,10 -4,16l-30 -3c2,-8 4,-16 6,-22 3,-7 8,-13 13,-18 5,-5 12,-9 20,-12 8,-3 18,-4 30,-4 22,0 38,6 49,18 11,12 16,29 16,52l0 90c0,11 1,18 3,24 2,5 7,8 13,8 2,0 3,-1 5,-1 1,0 3,0 4,-1l0 22c-3,1 -7,2 -10,2 -4,1 -8,1 -12,1 -5,0 -10,-1 -14,-3 -4,-1 -7,-4 -9,-8 -3,-3 -4,-8 -6,-13 -1,-5 -2,-11 -2,-18l-1 0c-3,7 -6,13 -10,18 -4,6 -8,10 -13,14 -5,4 -10,7 -16,9 -6,2 -14,3 -22,3zm7 -26c9,0 17,-2 24,-6 6,-4 12,-10 17,-16 4,-6 7,-13 10,-21 2,-7 3,-14 3,-21l0 -17 -31 0c-7,1 -14,1 -20,2 -6,1 -12,3 -17,7 -4,3 -8,7 -11,13 -3,6 -4,14 -4,23 0,11 2,20 7,26 5,7 13,10 22,10z"/>
   <path id="29" class="fil1" d="M4146 1820c-5,14 -12,23 -21,29 -9,6 -20,9 -32,9 -22,0 -38,-9 -48,-27 -10,-18 -16,-45 -16,-81 0,-73 22,-109 64,-109 13,0 23,3 32,9 9,5 16,15 21,27l0 0c0,-1 0,-3 0,-6l0 -8c0,-4 0,-6 0,-9l0 -6 0 -81 28 0 0 244c0,5 0,10 1,14 0,5 0,9 0,13 0,4 0,7 0,10 0,3 0,5 0,6l-27 0c0,-1 0,-3 0,-6 -1,-2 -1,-5 -1,-8 0,-3 0,-6 0,-9 0,-4 0,-7 0,-11l-1 0zm-86 -71c0,15 0,27 2,37 1,11 3,19 7,26 3,6 7,11 12,14 5,3 12,5 19,5 7,0 14,-1 20,-4 5,-3 10,-8 14,-15 4,-6 7,-15 9,-26 2,-11 3,-24 3,-39 0,-15 -1,-28 -3,-38 -2,-10 -5,-18 -9,-25 -4,-6 -9,-10 -14,-13 -6,-3 -12,-4 -20,-4 -7,0 -13,1 -18,4 -5,3 -9,8 -13,14 -3,7 -5,15 -7,26 -2,10 -2,23 -2,38z"/>
   <path id="30" class="fil1" d="M4262 1858c-17,0 -30,-6 -39,-17 -9,-11 -13,-26 -13,-45 0,-14 2,-26 7,-35 4,-8 9,-15 16,-20 7,-5 15,-9 24,-11 9,-2 18,-3 27,-3l39 -1 0 -11c0,-9 -1,-16 -3,-22 -1,-6 -3,-11 -7,-15 -3,-4 -6,-6 -11,-8 -4,-2 -10,-3 -16,-3 -6,0 -11,1 -15,2 -4,1 -8,3 -12,5 -3,3 -5,6 -7,10 -2,5 -4,10 -4,16l-30 -3c1,-8 3,-16 6,-22 3,-7 7,-13 12,-18 6,-5 13,-9 21,-12 8,-3 18,-4 30,-4 21,0 37,6 48,18 11,12 16,29 16,52l0 90c0,11 2,18 4,24 2,5 6,8 12,8 2,0 4,-1 5,-1 2,0 3,0 5,-1l0 22c-4,1 -7,2 -11,2 -4,1 -7,1 -11,1 -6,0 -10,-1 -14,-3 -4,-1 -7,-4 -10,-8 -2,-3 -4,-8 -5,-13 -1,-5 -2,-11 -3,-18l0 0c-4,7 -7,13 -11,18 -3,6 -7,10 -12,14 -5,4 -11,7 -17,9 -6,2 -13,3 -21,3zm6 -26c10,0 18,-2 24,-6 7,-4 13,-10 17,-16 5,-6 8,-13 10,-21 2,-7 4,-14 4,-21l0 -17 -32 0c-7,1 -13,1 -20,2 -6,1 -11,3 -16,7 -5,3 -9,7 -11,13 -3,6 -5,14 -5,23 0,11 3,20 8,26 5,7 12,10 21,10z"/>
   <polygon id="31" class="fil1" points="4497,1854 4497,1581 4528,1581 4528,1854 "/>
   <path id="32" class="fil1" d="M4688 1854l0 -133c0,-10 0,-18 -1,-25 -2,-7 -4,-12 -6,-17 -3,-4 -7,-7 -11,-9 -5,-1 -10,-2 -17,-2 -7,0 -13,1 -18,4 -6,3 -10,7 -14,13 -4,5 -7,12 -9,20 -2,8 -4,17 -4,28l0 121 -28 0 0 -165c0,0 0,-4 0,-13 0,-5 0,-10 0,-14 0,-4 -1,-8 -1,-11 0,-3 0,-5 0,-6l27 0c0,0 0,2 0,5 0,3 0,6 1,10 0,3 0,7 0,11 0,4 0,7 0,10l1 0c2,-7 5,-12 9,-17 3,-5 7,-9 11,-12 4,-4 9,-6 15,-8 6,-2 12,-3 20,-3 9,0 17,1 24,4 7,3 13,7 17,13 5,6 8,14 10,23 2,10 3,21 3,34l0 139 -29 0z"/>
   <path id="33" class="fil1" d="M4795 1670l0 184 -28 0 0 -184 -24 0 0 -25 24 0 0 -24c0,-7 0,-15 2,-21 1,-7 3,-12 6,-17 3,-5 7,-9 13,-12 5,-2 12,-4 21,-4 3,0 6,0 10,1 4,0 7,1 10,2l0 26c-2,0 -4,-1 -6,-1 -3,0 -5,0 -7,0 -4,0 -8,0 -10,2 -3,1 -5,3 -7,6 -1,2 -2,6 -3,10 0,3 -1,8 -1,13l0 19 34 0 0 25 -34 0z"/>
   <path id="34" class="fil1" d="M4995 1749c0,37 -6,64 -19,82 -14,18 -33,27 -58,27 -12,0 -23,-2 -32,-7 -9,-4 -17,-11 -24,-20 -6,-9 -11,-20 -15,-34 -3,-13 -5,-29 -5,-48 0,-72 26,-108 77,-108 13,0 25,2 34,7 10,4 18,11 24,20 7,9 11,20 14,34 3,13 4,29 4,47zm-30 0c0,-16 -1,-29 -3,-40 -2,-11 -5,-19 -9,-25 -4,-7 -8,-11 -14,-14 -6,-2 -12,-3 -19,-3 -8,0 -14,1 -20,4 -6,2 -11,7 -15,13 -4,7 -7,15 -10,26 -2,10 -3,23 -3,39 0,16 1,30 4,41 2,10 5,19 9,25 4,6 9,11 15,13 5,3 11,4 18,4 7,0 14,-1 20,-4 5,-2 10,-7 15,-13 4,-6 7,-15 9,-25 2,-11 3,-25 3,-41z"/>
   <path id="35" class="fil1" d="M5031 1854l0 -160c0,0 0,-5 0,-14 0,-4 0,-9 0,-13 0,-4 0,-8 0,-12 0,-4 0,-7 -1,-10l27 0c1,3 1,6 1,10 0,4 0,8 0,12 1,4 1,8 1,11l0 10 0 0c2,-8 5,-15 7,-21 2,-6 5,-11 8,-15 3,-4 6,-6 11,-8 4,-2 9,-3 15,-3 2,0 5,0 7,1 2,0 3,0 5,1l0 32c-2,-1 -5,-1 -7,-2 -3,0 -5,0 -9,0 -6,0 -12,2 -16,5 -5,4 -9,9 -12,15 -3,7 -5,14 -6,23 -1,9 -2,19 -2,29l0 109 -29 0z"/>
   <path id="36" class="fil1" d="M5239 1854l0 -133c0,-10 -1,-18 -2,-25 -1,-7 -3,-12 -5,-17 -2,-4 -6,-7 -10,-9 -4,-1 -9,-2 -15,-2 -6,0 -11,1 -16,4 -5,3 -9,7 -12,13 -4,5 -6,12 -8,20 -2,8 -3,17 -3,28l0 121 -28 0 0 -165c0,0 0,-4 0,-13 0,-5 0,-10 -1,-14 0,-4 0,-8 0,-11 0,-3 0,-5 0,-6l27 0c0,0 0,2 0,5 0,3 0,6 0,10 1,3 1,7 1,11 0,4 0,7 0,10l0 0c3,-7 6,-12 9,-17 3,-5 6,-9 10,-12 4,-4 9,-6 14,-8 5,-2 11,-3 18,-3 13,0 23,3 30,9 8,7 13,17 16,31l1 0c2,-7 5,-12 8,-17 3,-5 7,-9 11,-12 4,-4 9,-6 14,-8 6,-2 12,-3 19,-3 8,0 16,1 22,4 6,3 11,7 15,13 4,6 7,14 9,23 2,10 3,21 3,34l0 139 -28 0 0 -133c0,-10 -1,-18 -2,-25 -1,-7 -2,-12 -5,-17 -2,-4 -6,-7 -10,-9 -4,-1 -9,-2 -14,-2 -6,0 -12,1 -17,4 -5,3 -9,7 -12,12 -4,6 -6,12 -8,21 -2,8 -3,17 -3,28l0 121 -28 0z"/>
   <path id="37" class="fil1" d="M5453 1858c-17,0 -30,-6 -39,-17 -8,-11 -13,-26 -13,-45 0,-14 3,-26 7,-35 4,-8 10,-15 17,-20 7,-5 14,-9 23,-11 9,-2 18,-3 27,-3l39 -1 0 -11c0,-9 -1,-16 -2,-22 -2,-6 -4,-11 -7,-15 -3,-4 -7,-6 -12,-8 -4,-2 -10,-3 -16,-3 -5,0 -10,1 -15,2 -4,1 -8,3 -11,5 -3,3 -6,6 -8,10 -2,5 -3,10 -4,16l-30 -3c1,-8 3,-16 6,-22 3,-7 7,-13 13,-18 5,-5 12,-9 20,-12 8,-3 18,-4 30,-4 21,0 38,6 49,18 10,12 16,29 16,52l0 90c0,11 1,18 3,24 2,5 7,8 13,8 1,0 3,-1 5,-1 1,0 3,0 4,-1l0 22c-3,1 -7,2 -11,2 -3,1 -7,1 -11,1 -5,0 -10,-1 -14,-3 -4,-1 -7,-4 -9,-8 -3,-3 -4,-8 -6,-13 -1,-5 -2,-11 -2,-18l-1 0c-3,7 -7,13 -10,18 -4,6 -8,10 -13,14 -5,4 -10,7 -16,9 -7,2 -14,3 -22,3zm7 -26c9,0 17,-2 24,-6 6,-4 12,-10 16,-16 5,-6 8,-13 11,-21 2,-7 3,-14 3,-21l0 -17 -31 0c-7,1 -14,1 -20,2 -7,1 -12,3 -17,7 -4,3 -8,7 -11,13 -3,6 -4,14 -4,23 0,11 2,20 7,26 5,7 13,10 22,10z"/>
   <path id="38" class="fil1" d="M5612 1749c0,12 1,23 2,33 2,10 4,18 7,26 4,7 8,13 14,17 5,4 12,6 20,6 10,0 19,-4 26,-10 6,-7 10,-17 12,-31l29 2c-1,8 -3,17 -6,25 -4,8 -8,15 -13,21 -6,6 -12,11 -20,14 -8,4 -17,6 -27,6 -13,0 -25,-3 -34,-8 -10,-6 -17,-14 -23,-23 -6,-10 -10,-21 -13,-35 -3,-13 -4,-27 -4,-43 0,-14 1,-26 3,-37 2,-11 5,-20 8,-28 3,-8 7,-15 12,-21 5,-5 10,-9 15,-13 6,-3 11,-5 17,-7 6,-1 12,-2 19,-2 9,0 18,1 25,5 8,3 14,7 20,13 5,6 9,12 13,20 3,7 5,16 7,24l-29 3c-2,-11 -6,-21 -12,-28 -6,-6 -14,-10 -25,-10 -8,0 -15,2 -20,5 -6,3 -10,8 -14,15 -3,7 -5,15 -7,25 -1,10 -2,22 -2,36zm84 154c0,5 0,10 -2,14 -2,5 -4,8 -7,11 -4,4 -8,6 -14,7 -5,2 -12,3 -20,3 -2,0 -4,0 -7,0 -2,0 -4,0 -7,-1l0 -19c5,1 10,1 14,1 4,0 8,0 11,-1 2,-1 5,-2 7,-3 1,-1 3,-3 4,-5 0,-2 1,-4 1,-6 0,-5 -2,-9 -5,-11 -3,-3 -8,-4 -16,-4 0,0 -2,0 -5,0 -1,0 -3,0 -4,0l10 -35 17 0 -6 19c10,1 17,3 22,9 5,5 7,12 7,21z"/>
   <path id="39" class="fil1" d="M5796 1858c-17,0 -30,-6 -39,-17 -8,-11 -13,-26 -13,-45 0,-14 3,-26 7,-35 4,-8 10,-15 17,-20 7,-5 14,-9 23,-11 9,-2 18,-3 27,-3l39 -1 0 -11c0,-9 -1,-16 -2,-22 -2,-6 -4,-11 -7,-15 -3,-4 -7,-6 -12,-8 -4,-2 -10,-3 -16,-3 -5,0 -10,1 -15,2 -4,1 -8,3 -11,5 -3,3 -6,6 -8,10 -2,5 -3,10 -4,16l-30 -3c1,-8 3,-16 6,-22 3,-7 7,-13 13,-18 5,-5 12,-9 20,-12 8,-3 18,-4 30,-4 21,0 38,6 49,18 10,12 16,29 16,52l0 90c0,11 1,18 3,24 2,5 7,8 13,8 1,0 3,-1 5,-1 1,0 3,0 4,-1l0 22c-3,1 -7,2 -11,2 -3,1 -7,1 -11,1 -5,0 -10,-1 -14,-3 -4,-1 -7,-4 -9,-8 -3,-3 -4,-8 -6,-13 -1,-5 -2,-11 -2,-18l-1 0c-3,7 -7,13 -10,18 -4,6 -8,10 -13,14 -5,4 -10,7 -16,9 -7,2 -14,3 -22,3zm7 -26c9,0 17,-2 24,-6 6,-4 12,-10 16,-16 5,-6 8,-13 11,-21 2,-7 3,-14 3,-21l0 -17 -31 0c-7,1 -14,1 -20,2 -6,1 -12,3 -17,7 -4,3 -8,7 -11,13 -3,6 -4,14 -4,23 0,11 2,20 7,26 5,7 13,10 22,10zm53 -211c-4,0 -9,-1 -13,-3 -5,-2 -9,-5 -13,-8 -4,-3 -8,-5 -12,-8 -4,-2 -7,-3 -10,-3 -6,0 -10,1 -13,6 -3,3 -5,9 -6,16l-14 0c0,-5 1,-11 2,-17 1,-7 3,-12 5,-17 3,-5 6,-9 10,-13 4,-3 9,-4 15,-4 5,0 9,1 13,3 5,3 9,6 13,8l12 9c3,2 7,3 10,3 6,0 10,-2 13,-7 3,-4 5,-9 6,-16l14 0c0,5 -1,11 -2,17 -1,6 -3,12 -5,17 -2,5 -6,9 -9,13 -4,3 -10,4 -16,4z"/>
   <path id="40" class="fil1" d="M6078 1749c0,37 -6,64 -20,82 -13,18 -32,27 -57,27 -12,0 -23,-2 -32,-7 -9,-4 -17,-11 -24,-20 -6,-9 -11,-20 -15,-34 -3,-13 -5,-29 -5,-48 0,-72 26,-108 77,-108 13,0 25,2 34,7 10,4 18,11 24,20 7,9 11,20 14,34 3,13 4,29 4,47zm-30 0c0,-16 -1,-29 -3,-40 -2,-11 -5,-19 -9,-25 -4,-7 -9,-11 -14,-14 -6,-2 -12,-3 -19,-3 -8,0 -14,1 -20,4 -6,2 -11,7 -15,13 -4,7 -8,15 -10,26 -2,10 -3,23 -3,39 0,16 1,30 4,41 2,10 5,19 9,25 4,6 9,11 15,13 5,3 11,4 18,4 7,0 14,-1 20,-4 5,-2 10,-7 15,-13 4,-6 7,-15 9,-25 2,-11 3,-25 3,-41z"/>
   <polygon class="fil1" points="2380,112 2380,1025 2676,1025 2676,112 "/>
   <polygon id="1" class="fil1" points="2806,112 2806,350 3059,350 3059,1025 3354,1025 3354,350 3609,350 3609,112 "/>
   <polygon id="2" class="fil1" points="3739,112 3739,1025 4035,1025 4035,112 "/>
  </g>
 </g>
</svg>
